<svg xmlns="http://www.w3.org/2000/svg" width="576" height="576"><!--! Font Awesome Pro 6.2.1 by @fontawesome - https://fontawesome.com License - https://fontawesome.com/license (Commercial License) Copyright 2022 Fonticons, Inc.--><path d="M420.55 368.491a24 24 0 1 1 24-24 24 24 0 0 1-24 24m-265.1 0a24 24 0 1 1 24-24 24 24 0 0 1-24 24m273.7-144.48 47.94-83a10 10 0 1 0-17.27-10l-48.54 84.07a301.25 301.25 0 0 0-246.56 0l-48.54-84.07a10 10 0 1 0-17.27 10l47.94 83C64.53 268.781 8.24 352.111 0 450.561h576c-8.24-98.45-64.54-181.78-146.85-226.55" style="fill:#000000;fill-opacity:1"/></svg>