<?xml version="1.0" encoding="UTF-8" standalone="no"?>
<svg
   viewBox="0 0 576 576"
   version="1.1"
   id="svg4"
   sodipodi:docname="android.svg"
   inkscape:version="1.2.1 (9c6d41e410, 2022-07-14)"
   width="576"
   height="576"
   xmlns:inkscape="http://www.inkscape.org/namespaces/inkscape"
   xmlns:sodipodi="http://sodipodi.sourceforge.net/DTD/sodipodi-0.dtd"
   xmlns="http://www.w3.org/2000/svg"
   xmlns:svg="http://www.w3.org/2000/svg">
  <defs
     id="defs8" />
  <sodipodi:namedview
     id="namedview6"
     pagecolor="#ffffff"
     bordercolor="#000000"
     borderopacity="0.25"
     inkscape:showpageshadow="2"
     inkscape:pageopacity="0.0"
     inkscape:pagecheckerboard="0"
     inkscape:deskcolor="#d1d1d1"
     showgrid="false"
     inkscape:zoom="0.921875"
     inkscape:cx="282.57627"
     inkscape:cy="267.9322"
     inkscape:window-width="1440"
     inkscape:window-height="877"
     inkscape:window-x="-8"
     inkscape:window-y="1072"
     inkscape:window-maximized="1"
     inkscape:current-layer="svg4" />
  <!--! Font Awesome Pro 6.2.1 by @fontawesome - https://fontawesome.com License - https://fontawesome.com/license (Commercial License) Copyright 2022 Fonticons, Inc. -->
  <path
     d="m 420.55,368.49096 a 24,24 0 1 1 24,-24 24,24 0 0 1 -24,24 m -265.1,0 a 24,24 0 1 1 24,-24 24,24 0 0 1 -24,24 m 273.7,-144.48 47.94,-83 a 10,10 0 1 0 -17.27,-10 v 0 l -48.54,84.07 a 301.25,301.25 0 0 0 -246.56,0 l -48.54,-84.07 a 10,10 0 1 0 -17.27,10 v 0 l 47.94,83 c -82.32,44.77 -138.61,128.1 -146.85,226.55 h 576 c -8.24,-98.45 -64.54,-181.78 -146.85,-226.55"
     id="path2"
     style="fill:#f9f9f9;fill-opacity:1" />
</svg>
