<svg xmlns="http://www.w3.org/2000/svg" viewBox="0 0 640 512">
<!--! Font Awesome Pro 6.3.0 by @fontawesome - https://fontawesome.com License - https://fontawesome.com/license (Commercial License) Copyright 2023 Fonticons, Inc.-->
  <path d="M384 96v224H64V96h320zM64 32C29 32 0 61 0 96v224c0 35 29 64 64 64h117l-10 32H96a32 32 0 1 0 0 64h256a32 32 0 1 0 0-64h-75l-10-32h117c35 0 64-29 64-64V96c0-35-29-64-64-64H64zm464 0c-26 0-48 22-48 48v352c0 27 22 48 48 48h64c27 0 48-21 48-48V80c0-26-21-48-48-48h-64zm16 64h32c9 0 16 7 16 16s-7 16-16 16h-32c-9 0-16-7-16-16s7-16 16-16zm-16 80c0-9 7-16 16-16h32c9 0 16 7 16 16s-7 16-16 16h-32c-9 0-16-7-16-16zm32 160a32 32 0 1 1 0 64 32 32 0 1 1 0-64z"/>
</svg>
