<?xml version="1.0" encoding="UTF-8" standalone="no"?>
<svg
   viewBox="0 0 512 512"
   version="1.1"
   id="svg4"
   sodipodi:docname="gear.svg"
   inkscape:version="1.2.2 (732a01da63, 2022-12-09)"
   xmlns:inkscape="http://www.inkscape.org/namespaces/inkscape"
   xmlns:sodipodi="http://sodipodi.sourceforge.net/DTD/sodipodi-0.dtd"
   xmlns="http://www.w3.org/2000/svg"
   xmlns:svg="http://www.w3.org/2000/svg">
  <defs
     id="defs8" />
  <sodipodi:namedview
     id="namedview6"
     pagecolor="#ffffff"
     bordercolor="#000000"
     borderopacity="0.25"
     inkscape:showpageshadow="2"
     inkscape:pageopacity="0.0"
     inkscape:pagecheckerboard="0"
     inkscape:deskcolor="#d1d1d1"
     showgrid="false"
     inkscape:zoom="0.60559829"
     inkscape:cx="-106.50625"
     inkscape:cy="602.70976"
     inkscape:window-width="1920"
     inkscape:window-height="1057"
     inkscape:window-x="-8"
     inkscape:window-y="892"
     inkscape:window-maximized="1"
     inkscape:current-layer="svg4" />
  <!--! Font Awesome Pro 6.3.0 by @fontawesome - https://fontawesome.com License - https://fontawesome.com/license (Commercial License) Copyright 2023 Fonticons, Inc. -->
  <path
     d="m 495.95,166.65 c 3.2,8.7 0.5,18.4 -6.4,24.6 l -30.9,28.1 c -7.7,7.1 -11.4,17.5 -10.9,27.9 0.1,2.9 0.2,5.8 0.2,8.8 0,3 -0.1,5.9 -0.2,8.8 -0.5,10.5 3.1,20.9 10.9,27.9 l 30.9,28.1 c 6.9,6.2 9.6,15.9 6.4,24.6 -4.4,11.9 -9.7,23.3 -15.8,34.3 l -4.7,8.1 c -6.6,11 -14,21.4 -22.1,31.2 -5.9,7.2 -15.7,9.6 -24.5,6.8 l -39.7,-12.6 c -10,-3.2 -20.8,-1.1 -29.7,4.6 -4.9,3.1 -9.9,6.1 -15.1,8.7 -9.3,4.8 -16.5,13.2 -18.8,23.4 l -8.9,40.7 c -2,9.1 -9,16.3 -18.2,17.8 -13.8,2.3 -28,3.5 -42.5,3.5 -14.5,0 -28.7,-1.2 -42.5,-3.5 -9.2,-1.5 -16.2,-8.7 -18.2,-17.8 l -8.9,-40.7 c -2.2,-10.2 -9.5,-18.6 -18.8,-23.4 -5.2,-2.7 -10.2,-5.6 -15.1,-8.7 -8.8,-5.7 -19.7,-7.8 -29.7,-4.6 l -39.600002,12.7 c -8.8,2.8 -18.6,0.3 -24.5,-6.8 -8.1,-9.8 -15.5,-20.2 -22.1,-31.2 l -4.7,-8.1 c -6.1,-11 -11.4,-22.4 -15.8,-34.3 -3.2,-8.7 -0.5,-18.4 6.4,-24.6 l 30.9,-28.1 c 7.7,-7.1 11.4,-17.5 10.9,-27.9 -0.1,-2.9 -0.2,-5.8 -0.2,-8.8 0,-3 0.1,-5.9 0.2,-8.8 0.5,-10.5 -3.1,-20.9 -10.9,-27.9 l -30.9,-28.2 c -6.9,-6.2 -9.6,-15.9 -6.4,-24.6 4.4,-11.9 9.7,-23.3 15.8,-34.3 l 4.7,-8.1 c 6.6,-11 14,-21.4 22.1,-31.2 5.9,-7.2 15.7,-9.6 24.5,-6.8 L 122.85,98.85 c 10,3.2 20.8,1.1 29.7,-4.6 4.9,-3.1 9.9,-6.1 15.1,-8.7 9.3,-4.8 16.5,-13.2 18.8,-23.4 l 8.9,-40.7 c 2,-9.1 9,-16.2999998 18.2,-17.7999998 13.8,-2.4 28,-3.6 42.5,-3.6 14.5,0 28.7,1.2 42.5,3.5 9.2,1.5 16.2,8.6999998 18.2,17.7999998 l 8.9,40.7 c 2.2,10.2 9.4,18.6 18.8,23.4 5.2,2.7 10.2,5.6 15.1,8.7 8.8,5.7 19.7,7.7 29.7,4.6 l 39.7,-12.6 c 8.8,-2.8 18.6,-0.3 24.5,6.8 8.1,9.8 15.5,20.2 22.1,31.2 l 4.7,8.1 c 6.1,11 11.4,22.4 15.8,34.3 z m -239.9,169.4 a 80,80 0 1 0 0,-160 80,80 0 1 0 0,160 z"
     id="path2"
     style="fill:#f9f9f9;fill-opacity:1" />
</svg>
