<svg xmlns="http://www.w3.org/2000/svg" viewBox="0 0 512 512">
<!--! Font Awesome Free 6.2.1 by @fontawesome - https://fontawesome.com License - https://fontawesome.com/license/free (Icons: CC BY 4.0, Fonts: SIL OFL 1.1, Code: MIT License) Copyright 2022 Fonticons, Inc.-->
  <path d="M174 404c0 2-2 3-5 3-4 0-6-1-6-3s2-4 5-4 6 1 6 4zm-31-5c-1 2 1 4 4 5s6 0 6-2c1-2-1-4-4-5s-5 0-6 2zm44-2c-3 1-5 3-5 5 1 2 3 4 6 3s5-3 5-5-3-3-6-3zm66-383A240 240 0 0 0 8 258c0 111 70 206 170 239 12 3 17-5 17-12v-61s-70 15-85-30c0 0-12-29-28-37 0 0-23-15 2-15 0 0 24 2 38 26 22 38 59 27 73 21 2-16 9-27 16-34-56-6-112-14-112-110 0-28 7-42 23-59-2-7-11-34 3-68 21-7 69 27 69 27a235 235 0 0 1 126 0s48-34 69-27c13 34 5 61 2 68 16 17 26 31 26 59 0 96-59 104-115 110 9 8 17 23 17 46v84c0 7 5 14 17 12a248 248 0 0 0 168-239c0-139-112-244-251-244zM105 359c-1 1-1 3 1 5s4 3 5 1c1-1 1-3-1-5-1-2-3-2-5-1zm-11-8 3 4c1 1 3 1 4-1 1-1 0-3-2-4l-5 1zm33 36c-2 1-1 4 1 6s5 2 7 1c1-2 0-5-2-6-2-3-5-3-6-1zm-12-15v6c2 2 5 3 6 2 2-1 2-4 0-6-1-2-4-3-6-2z"/>
</svg>
