<svg xmlns="http://www.w3.org/2000/svg" viewBox="0 0 512 512">
<!--! Font Awesome Pro 6.2.1 by @fontawesome - https://fontawesome.com License - https://fontawesome.com/license (Commercial License) Copyright 2022 Fonticons, Inc.-->
  <path d="m253 123 3 2c1 0 3 0 3-2l-4-2-5-1-1 2 4 1zm-22 2 3-2 3-1v-1h-6c-1 0-3 1-3 3l3 1zm221 279c-4-4-5-12-7-20s-4-17-11-22a27 27 0 0 0-8-5c9-28 6-55-4-79-11-30-31-57-46-75-17-21-34-42-33-72 0-46 5-131-76-131-103 0-77 103-78 135-2 24-7 42-23 65-19 22-45 59-58 97-6 17-9 36-6 53-6 6-11 15-17 20-4 4-10 6-17 8-6 3-14 6-18 15l-3 12 1 12c2 8 3 16 1 21-5 14-6 24-2 32 4 7 11 10 20 12 17 3 41 3 59 12 20 11 40 14 56 11 12-3 21-10 26-20 13-1 26-6 48-7 15-1 34 5 56 4l2 7c8 17 24 24 40 23 17-1 34-11 49-28 13-16 36-23 51-32 7-5 13-10 13-19 1-8-4-17-15-29zM256 87c9-22 34-22 44 0 6 14 3 31-5 40l-12-5 4-4c4-12-1-27-9-28-8 0-14 11-12 23l-13-4c-1-7-1-15 3-22zm-41-11c10 0 21 14 19 33l-10 5c1-9-3-20-10-20-8 1-10 21-2 28 1 1 2 0-5 6-16-15-11-52 8-52zm-14 60 14-10c5-4 14-14 28-14 7 0 16 2 26 9 7 4 12 4 23 9 8 3 14 10 10 18-2 7-11 15-22 18-11 4-20 16-39 15l-9-2c-8-3-12-10-20-15-9-5-13-10-15-15-1-5 0-9 4-13zm4 334c-3 36-44 35-76 18-30-15-68-6-76-21-3-5-3-13 2-27 3-8 1-16 0-24s-2-15 1-20c3-7 8-9 15-11 10-4 11-4 19-10 6-6 10-13 14-18 6-6 10-8 18-7s15 7 22 16l20 36c9 19 43 48 41 68zm-2-25-14-20c7 0 14-2 17-9 2-6 0-15-8-25-13-18-38-32-38-32-14-9-21-19-25-30s-3-24 0-35c5-23 19-46 27-60 2-1 1 4-9 21-8 16-24 53-2 83 0-21 5-42 14-62 12-27 37-75 39-113l6 4 13 11c12 10 28 9 42 1 6-4 11-8 16-9 10-3 18-9 22-15 8 30 26 74 38 96 6 11 18 35 23 64l11 2c14-36-12-75-23-85-5-5-5-7-3-7 13 11 29 34 35 59 3 12 4 24 1 36 16 7 36 18 30 35h-4c3-10-4-18-23-26-19-9-36-9-38 12-12 4-18 15-21 27s-4 25-5 40c0 8-3 18-6 29-33 23-77 33-115 8zm258-12c-1 17-42 20-64 47a67 67 0 0 1-43 25c-14 1-27-5-34-19-5-11-2-23 1-37 4-14 9-28 10-40l4-39c3-10 7-17 14-21h1c1 13 7 26 19 29s31-7 38-16c9-1 16-1 23 5 10 8 7 30 17 41 11 12 14 20 14 25zM205 149l8 7c7 5 16 10 28 10 11 0 22-6 31-10l15-11c4-3 6-6 3-6-3-1-2 2-6 5s-9 7-14 9c-7 5-19 11-30 11-10 0-18-5-24-10l-8-7c-2-1-2-5-4-5s-2 4 1 7z"/>
</svg>
