<?xml version="1.0" encoding="UTF-8" standalone="no"?>
<svg
   viewBox="0 0 512 512"
   version="1.1"
   id="svg19"
   sodipodi:docname="linux.svg"
   inkscape:version="1.2.1 (9c6d41e410, 2022-07-14)"
   width="512"
   height="512"
   xmlns:inkscape="http://www.inkscape.org/namespaces/inkscape"
   xmlns:sodipodi="http://sodipodi.sourceforge.net/DTD/sodipodi-0.dtd"
   xmlns="http://www.w3.org/2000/svg"
   xmlns:svg="http://www.w3.org/2000/svg">
  <defs
     id="defs23" />
  <sodipodi:namedview
     id="namedview21"
     pagecolor="#ffffff"
     bordercolor="#000000"
     borderopacity="0.25"
     inkscape:showpageshadow="2"
     inkscape:pageopacity="0.0"
     inkscape:pagecheckerboard="0"
     inkscape:deskcolor="#d1d1d1"
     showgrid="false"
     inkscape:zoom="0.43641747"
     inkscape:cx="-156.9598"
     inkscape:cy="437.65434"
     inkscape:window-width="1440"
     inkscape:window-height="877"
     inkscape:window-x="-8"
     inkscape:window-y="1072"
     inkscape:window-maximized="1"
     inkscape:current-layer="svg19" />
  <!--! Font Awesome Pro 6.2.1 by @fontawesome - https://fontawesome.com License - https://fontawesome.com/license (Commercial License) Copyright 2022 Fonticons, Inc. -->
  <path
     d="m 252.70156,123.27898 c 1,0.5 1.8,1.7 3,1.7 1.1,0 2.8,-0.4 2.9,-1.5 0.2,-1.4 -1.9,-2.3 -3.2,-2.9 -1.7,-0.7 -3.9,-1 -5.5,-0.1 -0.4,0.2 -0.8,0.7 -0.6,1.1 0.3,1.3 2.3,1.1 3.4,1.7 z m -21.9,1.7 c 1.2,0 2,-1.2 3,-1.7 1.1,-0.6 3.1,-0.4 3.5,-1.6 0.2,-0.4 -0.2,-0.9 -0.6,-1.1 -1.6,-0.9 -3.8,-0.6 -5.5,0.1 -1.3,0.6 -3.4,1.5 -3.2,2.9 0.1,1 1.8,1.5 2.8,1.4 z m 221.1,278.8 c -3.6,-4 -5.3,-11.6 -7.2,-19.7 -1.8,-8.1 -3.9,-16.8 -10.5,-22.4 -1.3,-1.1 -2.6,-2.1 -4,-2.9 -1.3,-0.8 -2.7,-1.5 -4.1,-2 9.2,-27.3 5.6,-54.5 -3.7,-79.1 -11.4,-30.1 -31.3,-56.4 -46.5,-74.4 -17.1,-21.5 -33.7,-41.9 -33.4,-72 0.5,-45.900004 5.1,-131.20000437 -75.8,-131.30000437 -102.4,-0.2 -76.8,103.40000437 -77.9,135.20000437 -1.7,23.4 -6.4,41.8 -22.5,64.7 -18.9,22.5 -45.5,58.8 -58.1,96.7 -6,17.9 -8.799996,36.1 -6.2,53.3 -6.499996,5.8 -11.399996,14.7 -16.599996,20.2 -4.2,4.3 -10.3,5.9 -17,8.3 -6.7,2.4 -14,6 -18.5,14.5 -2.1,3.9 -2.8,8.1 -2.8,12.4 0,3.9 0.6,7.9 1.2,11.8 1.2,8.1 2.5,15.7 0.8,20.8 -5.2,14.4 -5.9,24.4 -2.2,31.7 3.8,7.3 11.4,10.5 20.1,12.3 17.3,3.6 40.799996,2.7 59.299996,12.5 19.8,10.4 39.9,14.1 55.9,10.4 11.6,-2.6 21.1,-9.6 25.9,-20.2 12.5,-0.1 26.3,-5.4 48.3,-6.6 14.9,-1.2 33.6,5.3 55.1,4.1 0.6,2.3 1.4,4.6 2.5,6.7 v 0.1 c 8.3,16.7 23.8,24.3 40.3,23 16.6,-1.3 34.1,-11 48.3,-27.9 13.6,-16.4 36,-23.2 50.9,-32.2 7.4,-4.5 13.4,-10.1 13.9,-18.3 0.4,-8.2 -4.4,-17.3 -15.5,-29.7 z m -196.3,-316.500004 c 9.8,-22.2 34.2,-21.8 44,-0.4 6.5,14.200004 3.6,30.900004 -4.3,40.400004 -1.6,-0.8 -5.9,-2.6 -12.6,-4.9 1.1,-1.2 3.1,-2.7 3.9,-4.6 4.8,-11.8 -0.2,-27.000004 -9.1,-27.300004 -7.3,-0.5 -13.9,10.800004 -11.8,23.000004 -4.1,-2 -9.4,-3.5 -13,-4.4 -1,-6.9 -0.3,-14.600004 2.9,-21.800004 z m -40.7,-11.5 c 10.1,0 20.8,14.2 19.1,33.500004 -3.5,1 -7.1,2.5 -10.2,4.6 1.2,-8.9 -3.3,-20.100004 -9.6,-19.600004 -8.4,0.7 -9.8,21.200004 -1.8,28.100004 1,0.8 1.9,-0.2 -5.9,5.5 -15.6,-14.6 -10.5,-52.100004 8.4,-52.100004 z m -13.6,60.700004 c 6.2,-4.6 13.6,-10 14.1,-10.5 4.7,-4.4 13.5,-14.2 27.9,-14.2 7.1,0 15.6,2.3 25.9,8.9 6.3,4.1 11.3,4.4 22.6,9.3 8.4,3.5 13.7,9.7 10.5,18.2 -2.6,7.1 -11,14.4 -22.7,18.1 -11.1,3.6 -19.8,16 -38.2,14.9 -3.9,-0.2 -7,-1 -9.6,-2.1 -8,-3.5 -12.2,-10.4 -20,-15 -8.6,-4.8 -13.2,-10.4 -14.7,-15.3 -1.4,-4.9 0,-9 4.2,-12.3 z m 3.3,334 c -2.7,35.1 -43.9,34.4 -75.3,18 -29.899996,-15.8 -68.599996,-6.5 -76.499996,-21.9 -2.4,-4.7 -2.4,-12.7 2.6,-26.4 v -0.2 c 2.4,-7.6 0.6,-16 -0.6,-23.9 -1.2,-7.8 -1.8,-15 0.9,-20 3.5,-6.7 8.5,-9.1 14.8,-11.3 10.3,-3.7 11.8,-3.4 19.6,-9.9 5.5,-5.7 9.5,-12.9 14.299996,-18 5.1,-5.5 10,-8.1 17.7,-6.9 8.1,1.2 15.1,6.8 21.9,16 l 19.6,35.6 c 9.5,19.9 43.1,48.4 41,68.9 z m -1.4,-25.9 c -4.1,-6.6 -9.6,-13.6 -14.4,-19.6 7.1,0 14.2,-2.2 16.7,-8.9 2.3,-6.2 0,-14.9 -7.4,-24.9 -13.5,-18.2 -38.3,-32.5 -38.3,-32.5 -13.5,-8.4 -21.1,-18.7 -24.6,-29.9 -3.5,-11.2 -3,-23.3 -0.3,-35.2 5.2,-22.9 18.6,-45.2 27.2,-59.2 2.3,-1.7 0.8,3.2 -8.7,20.8 -8.5,16.1 -24.4,53.3 -2.6,82.4 0.6,-20.7 5.5,-41.8 13.8,-61.5 12,-27.4 37.3,-74.9 39.3,-112.7 1.1,0.8 4.6,3.2 6.2,4.1 4.6,2.7 8.1,6.7 12.6,10.3 12.4,10 28.5,9.2 42.4,1.2 6.2,-3.5 11.2,-7.5 15.9,-9 9.9,-3.1 17.8,-8.6 22.3,-15 7.7,30.4 25.7,74.3 37.2,95.7 6.1,11.4 18.3,35.5 23.6,64.6 3.3,-0.1 7,0.4 10.9,1.4 13.8,-35.7 -11.7,-74.2 -23.3,-84.9 -4.7,-4.6 -4.9,-6.6 -2.6,-6.5 12.6,11.2 29.2,33.7 35.2,59 2.8,11.6 3.3,23.7 0.4,35.7 16.4,6.8 35.9,17.9 30.7,34.8 -2.2,-0.1 -3.2,0 -4.2,0 3.2,-10.1 -3.9,-17.6 -22.8,-26.1 -19.6,-8.6 -36,-8.6 -38.3,12.5 -12.1,4.2 -18.3,14.7 -21.4,27.3 -2.8,11.2 -3.6,24.7 -4.4,39.9 -0.5,7.7 -3.6,18 -6.8,29 -32.1,22.9 -76.7,32.9 -114.3,7.2 z m 257.4,-11.5 c -0.9,16.8 -41.2,19.9 -63.2,46.5 -13.2,15.7 -29.4,24.4 -43.6,25.5 -14.2,1.1 -26.5,-4.8 -33.7,-19.3 -4.7,-11.1 -2.4,-23.1 1.1,-36.3 3.7,-14.2 9.2,-28.8 9.9,-40.6 0.8,-15.2 1.7,-28.5 4.2,-38.7 2.6,-10.3 6.6,-17.2 13.7,-21.1 0.3,-0.2 0.7,-0.3 1,-0.5 0.8,13.2 7.3,26.6 18.8,29.5 12.6,3.3 30.7,-7.5 38.4,-16.3 9,-0.3 15.7,-0.9 22.6,5.1 9.9,8.5 7.1,30.3 17.1,41.6 10.6,11.6 14,19.5 13.7,24.6 z m -255.4,-284.4 c 2,1.9 4.7,4.5 8,7.1 6.6,5.2 15.8,10.6 27.3,10.6 11.6,0 22.5,-5.9 31.8,-10.8 4.9,-2.6 10.9,-7 14.8,-10.4 3.9,-3.4 5.9,-6.3 3.1,-6.6 -2.8,-0.3 -2.6,2.6 -6,5.1 -4.4,3.2 -9.7,7.4 -13.9,9.8 -7.4,4.2 -19.5,10.2 -29.9,10.2 -10.4,0 -18.7,-4.8 -24.9,-9.7 -3.1,-2.5 -5.7,-5 -7.7,-6.9 -1.5,-1.4 -1.9,-4.6 -4.3,-4.9 -1.4,-0.1 -1.8,3.7 1.7,6.5 z"
     id="path17"
     style="fill:#f9f9f9;fill-opacity:1" />
</svg>
