<svg xmlns="http://www.w3.org/2000/svg" xml:space="preserve" width="512mm" height="512mm" viewBox="0 0 512 512"><path d="M122.444 423.91c-.867-1.403 10.94-12.763 19.463-18.727 8.583-6.006 8.214-7.004-.502-1.358-12.814 8.302-31.338 29.05-19.284 21.6.501-.31.647-.991.323-1.515zM120.5 419c.34-.55.141-1-.441-1s-1.059.45-1.059 1 .198 1 .441 1 .72-.45 1.059-1zm-1.536-1.964c1.199-1.199 1.563-2.21.937-2.597-1.255-.776-5.066 2.485-4.318 3.695.765 1.239 1.178 1.105 3.38-1.098zM94.672 404.75c3.007-6.05 5.186-9.15 3.69-5.25-.406 1.057.083 1.5 1.653 1.5 1.896 0 2.038-.231.95-1.542-.995-1.2-1.013-1.81-.081-2.742.932-.932 1.382-.904 2.018.126.644 1.042.962.956 1.482-.401.365-.95.427-1.963.14-2.25-.288-.289-.524.076-.524.809 0 2.337-1.319.112-1.622-2.738-.218-2.038-.05-2.36.65-1.252.517.82.948 1.097.957.618.008-.48.69-.313 1.515.372 1.223 1.015 1.5.96 1.5-.294 0-.847.563-1.768 1.25-2.047.997-.404.994-.688-.012-1.4-2.1-1.485-.354-6.62 3.865-11.363 2.567-2.885 3.444-4.497 2.551-4.691-1.566-.34-1.025-5.205.58-5.205.55 0 .764.9.476 2.001-.288 1.101-.115 1.75.383 1.441.499-.308.907-1.433.907-2.501 0-2.489-3.794-2.642-4.733-.191-.369.963-1.757 3.325-3.086 5.25-2.49 3.607-22.184 43.316-22.177 44.716.005 1.195 3.917-5.418 7.668-12.966zM105 389c0-.55.45-1 1-1s1 .45 1 1-.45 1-1 1-1-.45-1-1zm12.535 21.84c.445-2.023 2.117-4.046 5.064-6.123 2.42-1.706 4.401-3.465 4.401-3.91 0-.444.65-.807 1.443-.807.794 0 2.144-1 3-2.223.856-1.222 1.557-1.84 1.557-1.374 0 .467 1.462-.674 3.25-2.534 4.17-4.339 8.817-8.145 6.86-5.619-1.173 1.514-1.122 1.75.375 1.75 1.192 0 1.533.51 1.1 1.641-.531 1.382-.386 1.44.915.36.935-.777 1.319-2.115.97-3.392-.556-2.044-.526-2.05.947-.21 1.268 1.582 1.779 1.683 3.076.607.855-.71 1.842-1.005 2.191-.655.706.706-3.457 4.649-4.908 4.649-2.531 0-4.426 3.537-2.327 4.342.964.37 1.265.076.898-.879-.355-.926.437-1.81 2.231-2.493 3.734-1.42 8.352-5.97 6.058-5.97-.9 0-1.636-.436-1.636-.969 0-.532-.749-.68-1.664-.33-1.21.465-1.44.276-.844-.689.612-.989.29-1.188-1.26-.783-1.498.392-1.933.155-1.55-.842.292-.763 1.175-1.387 1.96-1.387 1.088 0 1.189-.448.422-1.881-1.388-2.593 3.822-8.223 6.871-7.426 1.176.308 2.065.06 2.065-.576 0-.615-.45-1.117-1-1.117s-1-.45-1-1 .9-1 2-1 2-.636 2-1.413c0-1.155-.548-1.207-3-.28-1.65.622-3 1.74-3 2.484 0 1.043-.359.993-1.571-.22-2.056-2.055-2.35-1.982-1.719.429.293 1.118.03 2-.593 2-.615 0-1.117.62-1.117 1.378 0 .757-.68 1.942-1.512 2.632-1.046.868-1.203 1.628-.509 2.465 1.284 1.546.308 2.54-1.827 1.862-1.114-.355-1.262-.242-.455.345.746.542.869 1.402.326 2.28-.747 1.21-1.12 1.206-2.634-.026-1.546-1.259-1.693-1.247-1.192.095.366.979-.289 1.936-1.817 2.657-2.126 1.004-2.454.864-2.992-1.28-.662-2.636-1.425-2.971-3.054-1.342-.755.755-1.229.445-1.622-1.061-.673-2.571 1.642-3.786 3.8-1.994 2.255 1.87 1.78-.072-.651-2.66l-2.14-2.276-2.86 3.6c-1.574 1.98-2.861 2.947-2.861 2.15 0-2.906 5.338-6.814 8.721-6.386 2.372.3 3.023.058 2.626-.978-.616-1.605 3.856-3.072 5.766-1.891.847.523 1.032.251.6-.877-.753-1.961 1.995-5.019 3.865-4.301.82.314 1.118-.02.788-.88-.292-.762-1.097-1.169-1.789-.903-1.4.537-4.215-2.304-3.244-3.276.34-.34 1.233-.108 1.985.516.751.623 1.682.817 2.07.43.386-.386-.308-1.465-1.544-2.396-1.904-1.437-2.045-1.935-.932-3.277 1.097-1.322 1.059-1.68-.236-2.177-.852-.327-1.305-1.232-1.006-2.012 1.294-3.371-2.43-1.15-5.105 3.046-1.742 2.73-1.946 2.808-2.613 1-.636-1.727-.816-1.61-1.495.984-.514 1.961-.385 3.077.385 3.334.637.212 1.158.853 1.158 1.425 0 .602-.667.485-1.586-.278-1.066-.884-1.402-2.236-1.025-4.122.69-3.448-1.11-3.766-1.968-.347-.34 1.352-1.248 2.982-2.02 3.622-1.737 1.443-1.86-.194-.151-2.006 1-1.06.999-1.417-.006-1.785-.69-.254-.972-.92-.625-1.482.399-.645.948-.521 1.49.335.656 1.034.864 1.054.876.082.008-.7 1.186-1.72 2.617-2.264 1.655-.629 2.401-1.511 2.05-2.424-.385-1.006-.064-1.249 1.073-.813 1.194.459 1.46.2 1.007-.982-.68-1.773 1.593-1.71 5.05.141 1.358.727 2.288.675 3.212-.18 1.038-.96 1.176-.85.685.547-.724 2.057.124 4.75 1.496 4.75.528 0 .674-.9.325-2-.681-2.148.998-2.833 1.838-.75.301.747.536.545.583-.5.043-.962.529-1.75 1.079-1.75.55 0 1-.505 1-1.122 0-.76-.5-.707-1.55.163-1.345 1.116-1.485.935-1.065-1.378.272-1.5.024-2.663-.568-2.663-.577 0-.847-1.063-.598-2.363.363-1.902.093-2.27-1.384-1.884-2.227.583-2.323 1.616-.335 3.604.825.825 1.5 2.037 1.5 2.694 0 2.036-2.727-.828-3.42-3.592-.342-1.358-1.35-2.459-2.254-2.459-1.44 0-1.413-.247.23-2.062 1.056-1.166 2.642-1.858 3.654-1.593.983.257 2.04.06 2.348-.439.308-.498.057-.906-.558-.906-.615 0-.84-.451-.498-1.003.407-.658 1.371-.612 2.809.136 1.204.626 1.855.78 1.448.344-1.432-1.532 1.306-3.513 3.346-2.42 2.442 1.306 2.59-.568.153-1.932-.974-.545-1.354-1.339-.863-1.8.483-.454 1.08-.263 1.325.425.246.688.907 1.25 1.47 1.25s.765-.675.448-1.5c-.316-.825-.224-1.5.205-1.5s1.794-.945 3.035-2.1c2.678-2.496 4.175-1.72 1.783.923-.914 1.009-1.661 2.16-1.661 2.557 0 .398 1.136-.503 2.525-2.002 2.904-3.133 2.752-5.018-.368-4.565-1.51.219-2.18-.23-2.236-1.5-.043-.997-.297-1.276-.565-.62-.267.657-1.131.947-1.92.644-1.894-.727-1.82.136.183 2.14.89.89 1.316 1.921.946 2.292-.37.37-1.075.024-1.565-.769-.965-1.562-1.102-1.492-2.921 1.5-1.172 1.927-1.2 1.918-.741-.25.522-2.475.492-2.506-1.693-1.667-.835.32-1.274 1.22-.975 2 .33.86-.087 1.417-1.063 1.417-.884 0-1.607-.38-1.607-.845 0-1.661 3.955-4.386 5.503-3.792 1.109.425 1.491.093 1.287-1.12-.17-1.009.644-2.138 1.96-2.721 2.465-1.092 3.177-3.111.75-2.129-4.604 1.863-4.85 1.789-2.25-.683 2.723-2.589 3.68-5.71 1.75-5.71-.55 0-1 .482-1 1.071 0 .59-.675 1.747-1.5 2.572-1.333 1.333-1.5 1.27-1.5-.572 0-1.139.45-2.071 1-2.071s1-.505 1-1.122c0-.791-.43-.766-1.456.086-1.63 1.353-3.929.468-2.94-1.133.389-.628-.19-.587-1.483.104-2.295 1.228-2.91 2.305-.869 1.522.689-.264 1.818.425 2.509 1.531 1.373 2.2.356 2.729-1.561.812-.933-.933-1.2-.857-1.2.345 0 2.16-4.15 5.762-4.73 4.105-.24-.687-.897-1.25-1.46-1.25s-.765.675-.448 1.5c.316.825.401 1.5.188 1.5-.212 0-1.143.29-2.067.645-1.395.535-1.507.323-.655-1.25.564-1.042 1.28-2.711 1.592-3.708.311-.998.977-1.56 1.48-1.249.502.31.674-.35.382-1.47-.65-2.482 2.494-6.268 4.55-5.48.801.309 2.264-.17 3.25-1.062.985-.892 2.27-1.326 2.855-.965 1.469.908 1.337-.77-.187-2.386-1.025-1.087-.76-1.239 1.47-.845 1.496.265 2.48.092 2.185-.383-.293-.475.508-1.322 1.78-1.882 2.046-.9 1.938-.96-.926-.518-1.783.274-3.133.174-3-.224.263-.788-.6-1.223-2.426-1.223-.641 0-.882.285-.534.633.348.348-.435 1.473-1.74 2.5-3.278 2.578-4.644 2.297-1.559-.321l2.5-2.122-2.448.613c-1.346.337-2.977.174-3.623-.362-1.568-1.301-4.214-.195-4.93 2.061-.317 1-1.244 2.372-2.06 3.05-1.736 1.44-1.065-1.132 1.152-4.417.692-1.025 1.019-2.488.727-3.25-.31-.807.104-1.385.992-1.385.838 0 1.75.563 2.028 1.25.301.747.536.545.583-.5.043-.962-.323-1.75-.814-1.75-.491 0-1.143-.652-1.45-1.45-.37-.968-.075-1.264.894-.892.797.306 1.449.01 1.449-.658 0-.715.675-.955 1.641-.584 1.373.527 1.435.38.378-.893-1.514-1.824.847-2.257 2.623-.481.722.722.986.109.86-2-.099-1.673.197-3.042.659-3.042.461 0 .839.54.839 1.2 0 .867.347.832 1.25-.125 1-1.06.999-1.417-.006-1.785-2.05-.752-.34-2.289 2.565-2.305 1.774-.01 2.254-.293 1.407-.83-.712-.452-.996-1.563-.638-2.496.507-1.322.247-1.532-1.216-.983-1.637.614-1.697.496-.498-.978.75-.922 1.761-1.43 2.248-1.13.487.302 1.886-.153 3.109-1.01S165.235 273 166.2 273c.965 0 2.5-1.139 3.413-2.531.912-1.392 1.859-2.33 2.104-2.086.589.59-1.716 4.916-3.116 5.852-.77.514-.736.739.114.75.668.008 1.696-.885 2.285-1.985.589-1.1 1.547-2 2.129-2 .582 0 1.294.9 1.581 2 .636 2.43 1.106 2.476 3.461.345 1.448-1.31 1.823-1.362 1.801-.25-.015.773-1.577 2.53-3.472 3.905-3.78 2.743-4.73 4.729-1.414 2.954 2.757-1.476 3.449-.632 1.268 1.549-1.655 1.655-1.654 1.805.012 3.023 1.247.911 1.415 1.491.582 2.006-.644.398-1.515.169-1.935-.51-.543-.88-.96-.916-1.447-.129-.376.609-.155 1.107.492 1.107.71 0 .953.85.615 2.144-.385 1.469-.237 1.82.467 1.116 1.049-1.049 4.86-.558 4.86.625 0 .358-1.238 1.44-2.75 2.402l-2.75 1.75 3-.587c2.716-.53 2.834-.451 1.25.842-2.346 1.915-2.228 3.034.184 1.743 2.97-1.589 3.56-1.238 1.585.944-2.193 2.423.4 4.164 2.994 2.01 2.012-1.67 1.89-.093-.168 2.182-1.814 2.005-.486 2.57 1.462.622.943-.943 1.589-.826 2.95.536 1.131 1.132 1.375 1.994.695 2.457-1.58 1.076-1.593 5.205-.015 4.6 1.726-.663 2.8 2.301 1.63 4.49-.51.953-.568 2.313-.13 3.023.566.915.98.571 1.418-1.179 1.104-4.397 5.162-3.356 5.286 1.356.088 3.355 4.299 12.308 4.342 9.233.01-.655-.39-1.443-.89-1.751-1.48-.915-2.46-10.591-1.2-11.851.81-.81 1.43-.784 2.307.093 1.484 1.484 3.8 1.57 3.8.141 0-.583-.419-.8-.93-.484-.513.317-1.214.118-1.56-.44-.345-.56-.114-1.017.514-1.017.629 0 .962-.54.742-1.202-.497-1.492 2.228-4.798 3.956-4.798.703 0 1.278-.477 1.278-1.059s-.45-.78-1-.441c-.55.34-1 .156-1-.41 0-.565-.675-.768-1.5-.452-.825.317-1.551.19-1.614-.281-.788-5.922-.722-6.508.676-5.971.823.315 1.992-.3 2.688-1.414.677-1.085 1.756-1.972 2.397-1.972.655 0 .947-.836.667-1.909-.328-1.254.078-2.026 1.186-2.25 1.31-.265.963-.873-1.55-2.726-1.78-1.312-2.939-1.906-2.576-1.32.987 1.599-1.254 2.55-2.862 1.215-1.103-.916-1.675-.722-2.697.914-.713 1.142-1.808 2.076-2.434 2.076-.625 0-1.89 1.012-2.809 2.25l-1.672 2.25.482-2.349c.403-1.962.149-2.262-1.542-1.82-1.875.49-1.906.4-.43-1.232.877-.969 1.302-2.054.944-2.412-.358-.358-1.484.31-2.502 1.484-1.019 1.174-1.852 1.686-1.852 1.137 0-1.502 3.574-4.433 5-4.1.687.16 1.456-.27 1.708-.958.271-.74-.368-1.25-1.566-1.25-2.54 0-3.651-1.682-2.237-3.386.593-.714.782-1.594.42-1.956-.362-.362-.208-.658.342-.658s1-.675 1-1.5-.333-1.5-.74-1.5c-1.21 0 .162-3.831 1.868-5.217 1.337-1.086 1.483-1.026.954.388-.595 1.589 3.167 6.829 4.903 6.829.412 0 .224-.524-.417-1.165-.887-.887-.756-1.502.55-2.574 1.574-1.293 1.53-1.37-.534-.93-1.237.265-2.544.004-2.905-.58-.36-.583-.196-.776.366-.43.561.348 1.81-.24 2.775-1.307 1.674-1.849 4.713-3.104 10.763-4.443 6.823-1.51 1.12-5.3-8.319-5.526-10.93-.262-21.677 8.738-20.067 16.805.161.806-.2 1.06-.898.63-.693-.43-.933-1.893-.592-3.601.384-1.918.167-2.88-.649-2.881-.674-.001-1.325-1.464-1.448-3.25-.132-1.935.1-2.733.574-1.974.61.974 1.213.812 2.57-.687 1.015-1.121 1.449-2.489 1.013-3.194-.504-.815-.281-1.048.657-.688 1.63.625 4.136-1.606 3.099-2.759-.38-.422-.182-.477.439-.122.62.354 2.533-.057 4.25-.913 2.872-1.433 3.605-2.519 3.208-4.755-.082-.464.427-.633 1.132-.375.704.258 1.169.975 1.031 1.594-.137.619.425 1.125 1.25 1.125s1.5-.45 1.5-1-.45-1-1-1-1-.675-1-1.5.188-1.5.418-1.5c.23 0 1.204-.301 2.164-.67 1.19-.457 1.516-.298 1.023.5-.398.644-.303 1.17.211 1.17 1.749 0 .942-5.056-1.027-6.435-1.583-1.109-1.755-1.76-.889-3.378.89-1.664.562-2.551-1.927-5.216-2.497-2.673-2.663-3.123-.986-2.685 1.107.29 2.013.174 2.013-.257 0-1.485-2.75-3.062-4.3-2.467-1.202.461-1.442.069-1.057-1.733.419-1.965-.083-1.704-3.21 1.671-3.19 3.441-5.234 7.2-12.243 22.5-1.001 2.185-1.075 1.934-.583-1.993.31-2.472 1.014-4.773 1.567-5.115.553-.341.869-1.92.702-3.507-.328-3.13.77-5.722 2.08-4.912.45.278 1.427-.23 2.173-1.128 1.201-1.448 1.1-1.553-.887-.922-1.367.434-2.242.295-2.242-.356 0-.587.45-1.067 1-1.067s1-.675 1-1.5.436-1.5.969-1.5c.532 0 .68-.749.33-1.664-.464-1.208-.276-1.44.686-.846.884.547 1.085.433.605-.344-1.1-1.78.382-5.37 1.966-4.763.972.373.754-.75-.746-3.838-2.167-4.459-5.442-5.17-6.671-1.45-.397 1.202-.22 1.204 1.223.013 2.501-2.066 3.333-.404.922 1.842-1.14 1.061-2.29 1.71-2.557 1.444-.673-.674-6.727 7.698-6.727 9.303 0 4.099-1.537.376-1.72-4.166l-.22-5.452 3.481-.653c5.161-.968 5.282-2.5.142-1.796-2.554.35-4.68.184-5.037-.394-.372-.602 1.002-1.023 3.443-1.057 4.743-.065 11.395-3.254 14.183-6.798 1.076-1.368 2.194-2.248 2.485-1.958.29.29.079 1.102-.47 1.803-3.001 3.831-1.743 10.381 2.74 14.274 2.136 1.853 2.11 1.708-.361-1.982-2.986-4.46-3.37-6.518-1.216-6.518.798 0 1.897-.787 2.443-1.75.938-1.655 1.066-1.65 2.357.097 1.309 1.77 1.494 1.74 4.452-.75 1.698-1.428 3.506-2.597 4.018-2.597s1.988-1.125 3.28-2.5c1.292-1.375 3.283-2.514 4.424-2.532 1.89-.028 1.83-.215-.674-2.083-2.64-1.97-3.989-4.769-1.58-3.28.787.486.96.178.531-.94-.35-.916-.202-1.665.33-1.665 1.76 0 1.008-1.674-1.281-2.852l-2.25-1.158 2.401.62c2.055.531 2.288.351 1.617-1.245-.432-1.026-.753-2.652-.714-3.615.045-1.09-.66-1.75-1.866-1.75-1.066 0-1.938-.45-1.938-1s.675-1 1.5-1 1.5-.45 1.5-1-.542-.887-1.205-.75c-.662.138-1.28-.313-1.375-1a323.26 323.26 0 0 1-.295-2.23c-.222-1.741-6.459 2.497-6.653 4.521-.248 2.584-3.432 10.435-5.255 12.959-1.388 1.921-1.42 1.902-.818-.5 1.319-5.252 1.828-10.958 1.201-13.456l-.651-2.597-3.225 3.022c-1.773 1.662-3.899 3.017-4.724 3.011-1.313-.009-1.316-.127-.029-.94.81-.513 1.11-1.293.668-1.734-.441-.442-1.44.07-2.22 1.137-.78 1.066-1.419 1.538-1.419 1.048s-.54-.351-1.2.309c-1.593 1.593-2.864 1.529-2.234-.112.277-.721 2.063-1.875 3.969-2.564 3.8-1.375 4.62-3.124 1.465-3.124-1.1 0-2 .45-2 1s-2.362.968-5.25.93c-3.856-.052-4.719-.299-3.25-.93 1.793-.77 1.724-.867-.662-.93-2.247-.059-2.62.312-2.393 2.382.213 1.937-.362 2.672-2.737 3.5-4.157 1.449-4.72 1.246-1.458-.524 3.486-1.891 3.582-4.178.175-4.178-1.416 0-3.104-.572-3.75-1.272-.906-.98-.89-1.11.075-.566.773.437 3.217-1.318 6.412-4.603 2.839-2.92 4.862-4.787 4.496-4.148-.466.811 1.114 1.263 5.245 1.5 6.58.377 7.255-.62 1.12-1.657-2.2-.372-3.868-1.19-3.745-1.837.959-5.035-9.522 1.77-10.908 7.083-.695 2.666-1.208 2.752-4.147.693-1.223-.856-2.223-1.118-2.223-.581 0 .536-.275 1.691-.611 2.568-.448 1.166-.18 1.427 1 .974 1.253-.48 1.644.073 1.761 2.489.254 5.258.321 5.586 1.29 6.284.578.416.494 2.132-.22 4.455-.654 2.135-.971 7.174-.728 11.58l.431 7.8-2.711-1.41c-4.123-2.144-8.322-6.776-12.012-13.252-3.827-6.716-3.292-3.309.63 4.006 3.083 5.751 7.971 10.034 14.17 12.415 2.475.951 4.594 2.404 4.71 3.229.114.825.866 5.1 1.67 9.5 1.424 7.787 2.85 18.984 2.674 21-.138 1.587-.783 6.933-.925 7.668-.071.368-1.929 2.542-4.129 4.832-2.2 2.29-4 4.567-4 5.06 0 .494-4.5 5.46-10 11.038s-10 10.707-10 11.4c0 .691-.652 1.798-1.449 2.46-.797.66-1.976 2.853-2.621 4.872-.645 2.019-2.055 5.133-3.133 6.92-1.078 1.788-1.72 3.25-1.426 3.25.293 0-.102 2.113-.88 4.695-1.02 3.39-1.113 5.056-.333 5.995.792.954.599 2.032-.727 4.055-1 1.526-1.707 4.214-1.586 6.025.23 3.418-2.186 11.73-4.067 13.998-.794.957-.777 1.633.064 2.474.877.877 1.158.867 1.158-.042 0-.66.45-1.2 1-1.2 2.007 0 .933 1.979-1.391 2.562-2.153.54-3.647 3.487-4.024 7.938-.047.55-.629 1.35-1.293 1.776-.665.427-.971 1.397-.68 2.154.326.85-1.25 2.6-4.112 4.57-2.552 1.756-4.413 3.42-4.136 3.697.278.278 2.04-.665 3.915-2.096 4.736-3.613 6.898-3.27 2.827.45-3.108 2.838-3.813 5.61-.788 3.1 2.64-2.19 2.524.084-.132 2.577-1.477 1.387-1.939 1.994-1.025 1.348 1.137-.803 1.865-.843 2.309-.125.356.577.123 1.049-.518 1.049-.661 0-.898.697-.548 1.611.416 1.085.183 1.444-.714 1.1-.734-.281-1.936.456-2.672 1.639-1.256 2.017-1.226 2.057.487.65 1.717-1.41 1.778-1.32 1.025 1.5-.441 1.65-.909 4.575-1.039 6.5-.13 1.925-.556 4.4-.947 5.5l-.711 2 1.871-2c2.655-2.837 6.296-5.903 6.296-5.301 0 .28-1.109 1.705-2.464 3.167-1.37 1.48-2.21 3.319-1.893 4.146.36.937-.024 1.488-1.036 1.488-2.013 0-2.068 1.373-.119 2.99 1.205 1 1.606.929 2.107-.377.34-.887 1.09-1.613 1.667-1.613.576 0 .235.898-.759 1.996-1.378 1.524-2.126 1.732-3.155.878-.741-.615-1.4-.726-1.463-.246-.064.48-.178 1.322-.255 1.872-.077.55-.729 2.037-1.449 3.305-.72 1.267-1.182 3.292-1.026 4.5.156 1.207-.067 2.758-.495 3.445-.497.798-.215 1.25.781 1.25 1.746 0 2.093 1.552.559 2.5-.55.34-1 1.097-1 1.681 0 2.175 2.881-1.363 3.535-4.34zm5.182-9.51c-.404-.643-.013-1.892.87-2.775.884-.884 1.344-2.293 1.022-3.133-.334-.87-.16-1.263.402-.915 1.251.773 1.303 4.493.062 4.493-.51 0-1.082.788-1.273 1.75-.235 1.187-.583 1.374-1.083.58zm4.298-6.521c-.008-.93.435-1.97.985-2.309 1.266-.782 1.266.542 0 2.5-.835 1.293-.971 1.266-.985-.191zm2.985.25c0-.518.445-1.216.989-1.552.566-.35.734.051.393.941-.665 1.732-1.382 2.05-1.382.611Zm-8.607-4.64c.334-.87.607-1.826.607-2.123 0-.298.698.038 1.55.746 1.282 1.063 1.845.992 3.25-.414 1.392-1.392 1.454-1.853.343-2.54-.746-.46-.949-1.09-.45-1.398 2.072-1.281 3.103 2.844 1.275 5.101-2.145 2.649-7.548 3.164-6.575.627zm10.225-1.147c1.84-1.365 1.84-1.427-.045-2.823-1.06-.786-1.618-1.738-1.24-2.116.378-.378 1.29.136 2.026 1.143.735 1.006 1.856 1.51 2.49 1.118.633-.392 1.151-.262 1.151.288s-.498 1.308-1.107 1.684c-.802.496-.79.88.04 1.392.63.39-.282.709-2.026.709-2.946 0-3.038-.1-1.29-1.395zM123 378.5c0-.825.436-1.5.969-1.5.532 0 .71.675.393 1.5-.317.825-.753 1.5-.969 1.5-.216 0-.393-.675-.393-1.5Zm3.5-.5c.34-.55 1.068-1 1.618-1s.722.45.382 1c-.34.55-1.068 1-1.618 1s-.722-.45-.382-1zm-4.485-2.559c.034-2.057 1.939-3.786 4.285-3.889 2.058-.09 2.349.223 1.74 1.868-.968 2.618-3.032 3.231-3.072.913-.03-1.73-.114-1.724-1.5.108-.807 1.068-1.461 1.518-1.453 1zm7.704-1.191c.362-.963 1.36-2.35 2.219-3.082 1.41-1.202 1.404-1.283-.055-.832-1.378.425-1.452.143-.5-1.91 1.149-2.479 2.617-3.245 2.617-1.367 0 .582.45.78 1 .441 2.112-1.305.876 2.247-1.5 4.313-1.375 1.196-2.5 2.627-2.5 3.18 0 .554-.436 1.007-.969 1.007-.532 0-.673-.787-.312-1.75zm6.296-.941c.035-1.845 1.953-3.908 1.97-2.118.008.93-.435 1.97-.985 2.309-.55.34-.993.254-.985-.191zm5.743-5.127c-.3-1.147-.03-2.298.598-2.558.776-.32.66-.813-.356-1.533-1.78-1.258-.106-1.444 1.85-.205 1.126.714 1.11 1.312-.099 3.619-1.36 2.598-1.48 2.639-1.993.677zM125 363.702c0-.897 1.012-2.163 2.25-2.812l2.25-1.181-1.99 2.395c-1.093 1.318-2.106 2.583-2.25 2.813-.143.229-.26-.318-.26-1.215ZM142.71 359c.288-1.1.696-2 .907-2 .21 0 .383.9.383 2s-.408 2-.906 2c-.499 0-.671-.9-.384-2zm-16.977-1.124c.679-.684 1.486-.99 1.793-.683.308.308-.247.867-1.233 1.243-1.425.542-1.54.428-.56-.56zm8.851-10.517c-.527-1.373-.38-1.435.893-.378 1.735 1.44 1.916 2.019.63 2.019-.491 0-1.176-.739-1.523-1.641zm7.007-.101c-.318-.318.348-1.227 1.48-2.02 2.673-1.872 3.432-1.113.984.983-1.037.888-2.146 1.355-2.464 1.037zM130.6 339.6c.305-.795 1.162-1.678 1.904-1.963 1.582-.607 4.145 2.072 3.002 3.137-.43.4-.98.167-1.224-.516-.32-.899-.968-.961-2.34-.227-1.5.803-1.781.713-1.342-.43zm9.69-.6c-.546-2.086-2.29-2.793-2.29-.929 0 .59-.707.364-1.572-.5-1.43-1.43-1.385-1.81.486-4.19 1.132-1.438 1.766-3.09 1.408-3.668-.404-.654-.02-.81 1.014-.414 2.404.922 2.044-.768-.586-2.753-2.223-1.678-2.22-1.68.309-.224 2.585 1.489 7.941 1.193 7.941-.439 0-.485.705-.883 1.567-.883 1.147 0 1.398-.604.935-2.25-.413-1.467-.321-1.803.262-.966.544.78 1.636 1 2.782.56 1.79-.687 1.786-.62-.08 1.306-1.081 1.116-2.753 2.313-3.716 2.659-.962.345-1.75 1.14-1.75 1.767 0 .626.565.921 1.255.656s1.833.137 2.54.893c1.9 2.034-1.132 1.83-4.58-.308-1.686-1.046-2.241-1.16-1.465-.3 1.493 1.652 1.665 3.357.25 2.483-.55-.34-1-.133-1 .46 0 .638.977.833 2.391.478 1.417-.356 2.702-.097 3.154.635.492.796.352.981-.392.521-.7-.432-1.526.258-2.093 1.749-1.214 3.192-3.03 4.273-4.258 2.535-.72-1.016-.846-.787-.482.872.61 2.781-1.307 3.017-2.03.25zm.208-5.819c2.366-2.611 2.577-3.15 1-2.557-2.374.894-4.422 3.32-4.466 5.293-.018.779.08 1.227.218.995.138-.232 1.6-1.911 3.248-3.73zm-5.934-1.474c.376-.986.935-1.541 1.243-1.233.308.307 0 1.114-.683 1.793-.988.98-1.102.865-.56-.56zm-1.564-5.76c0-.58 1.17-2.717 2.6-4.75 1.43-2.033 2.44-3.247 2.245-2.697-2.684 7.562-4.845 10.884-4.845 7.447Zm10.405-1.805c2.038-2.292 2.595-2.588 2.595-1.383 0 .418-1.012 1.382-2.25 2.142-2.242 1.377-2.243 1.375-.345-.76zm-4.698-3.13c.286-1.095.941-1.73 1.455-1.412.552.341.455 1.156-.236 1.989-1.577 1.9-1.835 1.779-1.219-.578zm15.165-.676c-1.244-1.508-1.162-1.552.878-.465 2.327 1.24 2.9 2.129 1.372 2.129-.482 0-1.495-.749-2.25-1.664zM135 315.624c0-.928.694-1.953 1.543-2.279 2.427-.931 2.662.16.463 2.15-1.83 1.656-2.006 1.668-2.006.129Zm7.5-1.624c-.34-.55-.141-1 .441-1s1.059.45 1.059 1-.198 1-.441 1-.72-.45-1.059-1zm53.66-1.307c-.827-.997-.382-1.721 1.878-3.056 1.63-.963 2.962-2.122 2.962-2.577 0-.455.952-1.076 2.114-1.38l2.115-.553-2.124 2.26c-1.168 1.244-1.782 2.638-1.364 3.098.417.46.177.5-.535.09-1.49-.86-4.456 1.211-3.636 2.538.84 1.36-.187 1.053-1.41-.42zm-58.67-3.036c1.18-1.801 1.286-2.565.4-2.86-.941-.314-.935-.836.026-2.35.94-1.483 1.108-1.537.703-.229-.292.945-.094 1.988.441 2.32.535.33.666 1.096.292 1.701-.438.708-.087.873.984.462 2.786-1.069 1.858.148-1.396 1.83l-3.06 1.583 1.61-2.457zM143 311c0-.55.477-1 1.059-1s.78.45.441 1c-.34.55-.816 1-1.059 1s-.441-.45-.441-1Zm1.674-3.406c-.388-1.012-.106-1.313.877-.936 1.635.627 2-1.2.433-2.168-1.414-.874-.219-2.493 1.825-2.475 1.46.014 1.485.15.191 1-1.183.777-1.23 1.16-.226 1.809.981.634.837 1.218-.627 2.543-1.638 1.482-1.979 1.514-2.473.227zm5.326-.977c0-.211.9-.62 2-.907 1.1-.287 2-.115 2 .384 0 .498-.9.906-2 .906s-2-.173-2-.383zM200.5 304c.34-.55.816-1 1.059-1s.441.45.441 1-.477 1-1.059 1-.78-.45-.441-1zm-6.065-.895c.372-.602 1.606-1.592 2.741-2.2 1.48-.791 1.874-.794 1.389-.01-.372.602-1.606 1.592-2.741 2.2-1.48.791-1.874.794-1.389.01zM141 297.941c0-.582.45-.78 1-.441.55.34 1 .816 1 1.059s-.45.441-1 .441-1-.477-1-1.059zm45.5-.941c-.34-.55-.141-1 .441-1s1.059.45 1.059 1-.198 1-.441 1-.72-.45-1.059-1zm18.065-.895c-.305-.493.096-1.145.89-1.45.963-.369 1.258-.07.887.896-.645 1.68-1.01 1.794-1.777.554zm-22.834-6.185c.354-1.352.807-1.806 1.057-1.057.24.722-.038 1.787-.62 2.369-.742.742-.872.351-.437-1.312zM177.5 288c.34-.55 1.068-1 1.618-1s.722.45.382 1c-.34.55-1.068 1-1.618 1s-.722-.45-.382-1zm-29.936-1.293c.376-.986.935-1.541 1.243-1.233.308.307 0 1.114-.683 1.793-.988.98-1.102.865-.56-.56zm40.192-.284c-1.109-1.109.172-2.423 2.362-2.423 1.1 0 1.717.457 1.372 1.016-.346.56-1.009.781-1.474.494-.465-.287-1.005-.042-1.201.546-.196.588-.673.753-1.059.367zm-6.423-4.879c0-.8.383-1.22.85-.93.467.288.59.943.274 1.455-.808 1.308-1.124 1.161-1.124-.525zm8.132-2.5c.29-3.687 1.254-4.94 2.1-2.734.338.879-.052 2.547-.865 3.707-1.432 2.046-1.47 2.016-1.235-.974zM165 271c-1.282-.828-1.246-.972.25-.985.963-.008 1.75.435 1.75.985 0 1.22-.113 1.22-2 0zm12.079-.583c.048-1.165.285-1.402.604-.604.289.721.253 1.584-.079 1.916-.332.332-.568-.258-.525-1.312zm21.936-2.608c-.008-.93.435-1.97.985-2.309 1.266-.782 1.266.542 0 2.5-.835 1.293-.971 1.266-.985-.191zM166 266.896c0-1.908 3.37-3.903 4.946-2.93.897.555.944.984.16 1.468-.608.376-1.106.363-1.106-.03s-.9.1-2 1.096c-1.538 1.391-2 1.483-2 .396zm10.204-4.444c.614-1.349 1.453-2.452 1.863-2.452 1.247 0-.169 3.825-1.622 4.383-1.095.42-1.142.046-.241-1.931zM209.5 262c.34-.55 1.379-.993 2.309-.985 1.457.014 1.484.15.191.985-1.958 1.266-3.282 1.266-2.5 0zm-37.5-1.941c0-.518.445-1.216.989-1.552.566-.35.734.051.393.941-.665 1.732-1.382 2.05-1.382.611Zm5.046-3.145c.614-1.147 1.36-1.841 1.659-1.543.824.824-.496 3.629-1.709 3.629-.74 0-.724-.64.05-2.086zm2.954 1.637c0-.382.675-1.369 1.5-2.194s1.5-1.073 1.5-.55c0 .521-.675 1.508-1.5 2.193s-1.5.933-1.5.551zm1-6.929c0-.207.685-.946 1.523-1.641 1.273-1.057 1.42-.995.893.378-.538 1.401-2.416 2.384-2.416 1.263zM166 206c0-.55.45-1 1-1s1 .45 1 1-.45 1-1 1-1-.45-1-1zm15 0c0-.55.477-1 1.059-1s.78.45.441 1c-.34.55-.816 1-1.059 1s-.441-.45-.441-1Zm-12.968-2.563c.11-3.273 13.247-9.178 22.224-9.99 3.453-.311 3.672-.182 2.715 1.607-.573 1.07-1.277 1.946-1.565 1.946-.288 0-.265-.419.051-.93.931-1.507-1.12-2.17-3.632-1.173-1.279.507-5.025 1.695-8.325 2.64-3.3.946-7.237 2.871-8.75 4.278-1.512 1.408-2.736 2.137-2.718 1.622zm14.968-4.83c0-.216.675-.652 1.5-.969.825-.316 1.5-.14 1.5.393s-.675.969-1.5.969-1.5-.177-1.5-.393zm-16.436-4.9c.376-.986.935-1.541 1.243-1.233.308.307 0 1.114-.683 1.793-.988.98-1.102.865-.56-.56zM165.5 184c.34-.55 1.041-1 1.559-1s.941.45.941 1-.702 1-1.559 1-1.28-.45-.941-1zM72 412.216c0-.432 1.381-1.6 3.07-2.598 2.121-1.253 2.877-2.314 2.447-3.435-.343-.892-.323-1.323.042-.957.366.366 2.078-.655 3.803-2.268 1.973-1.844 3.788-2.727 4.888-2.378 1.138.36 1.75.028 1.75-.954 0-.83.516-1.827 1.146-2.216.806-.499.949.076.48 1.94-1 3.989.199 3.187 2.394-1.6 1.072-2.337 3.505-7.164 5.407-10.725 2.937-5.5 4.27-10.809 1.448-5.767-.536.958-1.415 1.742-1.955 1.742-.539 0 .019-1.351 1.24-3.002 1.356-1.834 2.481-2.579 2.892-1.914.385.623 2.64-1.727 5.277-5.498 5.131-7.34 5.105-7.871-.185-3.74-2.004 1.564-5.782 4.082-8.394 5.594-2.67 1.546-4.464 3.214-4.096 3.81.36.582.202.779-.352.437-.554-.343-1.861.06-2.905.897-1.81 1.45-1.787 1.49.497.855l2.395-.665-2.145 2.301C89.965 383.341 89 384.752 89 385.21c0 .459-2.475 3.308-5.5 6.333-3.025 3.025-5.5 6.12-5.5 6.875 0 .756-1.608 2.786-3.572 4.511-1.965 1.725-3.38 3.685-3.144 4.354.236.67.055 2.23-.403 3.467-.504 1.364-.447 2.25.144 2.25.536 0 .975-.353.975-.784Zm49-.275c0-.582.526-.734 1.17-.336.782.483.962.182.544-.909-.708-1.844.857-3.196 3.698-3.196 1.051 0 2.098-.675 2.326-1.5.337-1.22.235-1.245-.54-.137-.759 1.082-1.044 1.099-1.383.08-.345-1.032-1.029-1.016-3.515.084-1.886.835-2.885 1.892-2.568 2.718.286.743-.325 1.99-1.357 2.771-1.725 1.307-1.735 1.423-.125 1.452.963.018 1.75-.445 1.75-1.027zm-58.145-7.237c1.904-2.088 4.025-3.58 4.714-3.316.689.264 2.357-1.19 3.708-3.23 2.8-4.231 7.461-9.153 13.243-13.984 5.105-4.265 3.094-3.229-7.6 3.917-9.28 6.2-20.92 17.983-20.92 21.176 0 2.375 1.345 1.48 6.855-4.563zm70.487-1.029c.362.362.658.103.658-.576 0-.779-.738-1-2-.599-2.64.838-2.536-.232.25-2.556 1.238-1.033 1.688-1.892 1-1.91-.687-.019-1.25.34-1.25.797s-1.125 1.433-2.5 2.169c-2.678 1.433-3.498 3.597-1 2.638.825-.316 1.5-.084 1.5.516 0 .777.387.77 1.342-.023.738-.612 1.638-.818 2-.456zM86.5 403c.34-.55.168-1-.382-1s-1.278.45-1.618 1c-.34.55-.168 1 .382 1s1.278-.45 1.618-1zm50.5-3.059c0-.518-.45-.941-1-.941s-1 .702-1 1.559.45 1.28 1 .941c.55-.34 1-1.041 1-1.559zm-61.626-15.885c-.236-.245-1.43.607-2.652 1.894l-2.222 2.338 2.652-1.894c1.459-1.042 2.459-2.094 2.222-2.338zM140 385c0-.55-.198-1-.441-1s-.72.45-1.059 1c-.34.55-.141 1 .441 1s1.059-.45 1.059-1zm-58-5c0-.55-.477-1-1.059-1s-.78.45-.441 1c.34.55.816 1 1.059 1s.441-.45.441-1Zm71.394-1.584c.373-.973.15-1.43-.58-1.187-1.496.498-2.319 2.771-1.004 2.771.537 0 1.25-.713 1.584-1.584zm-58.065-6.573c4.306-2.664 8.131-4.853 8.5-4.865.37-.012 1.796-.918 3.171-2.013 2.863-2.28.116-1.726-3.473.701-1.084.734-2.734 1.334-3.666 1.334-.932 0-1.844.364-2.028.808-.448 1.087-9.454 7.192-10.608 7.192-.503 0-1.772.965-2.82 2.146L82.5 379.29l2.5-1.303c1.375-.716 6.023-3.481 10.33-6.145zM78.5 377c.34-.55-.084-1-.941-1S76 376.45 76 377s.423 1 .941 1 1.22-.45 1.559-1zm77.919-1.351c-.346-.9-1.053-1.375-1.572-1.054-.563.348-.463 1.163.247 2.018 1.463 1.763 2.173 1.246 1.325-.964zm-77.583-.737c1.628.871 2.5.502 5.108-2.166 1.73-1.769 2.679-3.372 2.11-3.562-.57-.19-1.747.366-2.617 1.236-.869.869-1.864 1.58-2.211 1.58-.348 0 1.126-1.8 3.274-4s4.405-4 5.016-4c.61 0 2.403-1.35 3.984-3 1.58-1.65 3.33-3 3.887-3 .58 0 .5.513-.187 1.2-1.76 1.76-1.465 3.265.346 1.762.85-.705 1.294-1.935.988-2.734-.402-1.049-.077-1.267 1.174-.786.952.365 1.403.336 1.002-.065-.4-.4.288-1.847 1.53-3.214 1.243-1.367 1.585-2.104.76-1.638-3.53 1.996-24.758 18.6-27.022 21.137-1.363 1.528-1.72 2.197-.792 1.488 1.233-.942 2.214-1.006 3.65-.238zm.623-.979c-.363-.586-.445-1.28-.183-1.543.262-.262.743.218 1.07 1.067.675 1.762.099 2.072-.887.476zM163 375.607c0-.216-.698-.661-1.552-.989-.89-.341-1.291-.173-.94.393.586.95 2.492 1.406 2.492.596zm3.975-2.607c.446 0 1.081-.704 1.412-1.565.464-1.21.137-1.419-1.441-.918-1.123.357-2.643.15-3.377-.46-1.337-1.11-3.331 1.514-2.093 2.753.288.288.524-.002.524-.643 0-.642.498-1.167 1.107-1.167s.829.725.489 1.611c-.453 1.18-.192 1.448.974 1 .877-.336 1.959-.611 2.405-.611ZM150 371.5c0-.825-.66-1.5-1.469-1.5-.894 0-1.243.586-.893 1.5.317.825.978 1.5 1.469 1.5.491 0 .893-.675.893-1.5zm-58-2.26c0-.417-.9-1.321-2-2.008-2.266-1.415-2.607-.837-.75 1.272 1.372 1.558 2.75 1.927 2.75.737zm77.675-1.898c-.362-.362-.156-1.262.456-2 .857-1.032.726-1.342-.568-1.342-.924 0-1.403-.45-1.063-1 .34-.55.006-1-.741-1-2.779 0-3.72-2.129-2.062-4.66 1.148-1.753 2.132-2.223 3.685-1.762 2.1.623 2.1.615.118-.92-2.921-2.264-8.354 2.877-6.568 6.215.626 1.17 1.742 2.127 2.48 2.127.739 0 1.903.675 2.588 1.5.928 1.118.944 1.5.063 1.5-.65 0-.903.45-.563 1 .34.55 1.116 1 1.726 1 .609 0 .811-.296.45-.658zM94 364.5c0-.825-.45-1.5-1-1.5s-1 .675-1 1.5.45 1.5 1 1.5 1-.675 1-1.5zm11-5.49c0-.545-.9-.22-2 .722s-2 2.287-2 2.99c0 .797.754.524 2-.722 1.1-1.1 2-2.446 2-2.99zm68.526 2.183c-.307-.308-1.114 0-1.793.683-.98.988-.865 1.102.56.56.986-.376 1.541-.935 1.233-1.243zm-56.024-2.443c1.91-1.238 3.479-2.574 3.486-2.97.01-.595-6.383 3.282-7.879 4.777-1.23 1.23 1.328.178 4.393-1.807zM154.5 344c.34-.55-.11-1-1-1s-1.34.45-1 1c.34.55.79 1 1 1 .21 0 .66-.45 1-1zm15.071-2.429c1.577-1.576 1.836-2.571.67-2.571-.418 0-1.322.9-2.009 2-1.452 2.326-.725 2.636 1.34.571zM150 340c0-.55-.423-1-.941-1s-1.22.45-1.559 1c-.34.55.084 1 .941 1s1.559-.45 1.559-1zm31.5-1c.34-.55.168-1-.382-1s-1.278.45-1.618 1c-.34.55-.168 1 .382 1s1.278-.45 1.618-1zm-7.071-1.571c.864-.865 1.564-2.102 1.556-2.75-.01-.71-.438-.581-1.076.321-.799 1.129-1.187 1.19-1.568.25-.28-.688-1.402-1.25-2.496-1.25-2.131 0-5.124 2.388-4.178 3.333.314.315 1.225-.082 2.023-.88 2.024-2.024 3.31-1.812 3.31.547 0 2.411.379 2.478 2.429.429zm19.916-19.972c-.326-.849-.807-1.329-1.069-1.067-.262.262-.18.957.183 1.543.986 1.596 1.562 1.286.886-.476zm-28.981-2.951c-.316-.822-.976-1.246-1.469-.941-1.412.872-1.044 2.435.574 2.435.892 0 1.243-.587.895-1.494zm-15.84-2.887c.76-.76 1.124-1.638.81-1.952-.578-.578-3.334 1.705-3.334 2.762 0 .978 1.084.63 2.524-.81zm26.858-3.17c.341-.89.173-1.292-.393-.942-.544.336-.989 1.034-.989 1.552 0 1.438.717 1.121 1.382-.61zm31.618 1.11c0-.243-.45-.72-1-1.059-.55-.34-1-.141-1 .441s.45 1.059 1 1.059 1-.198 1-.441zm6.345-2.309c.255-.412-.618-.75-1.94-.75-1.323 0-2.405.338-2.405.75s.873.75 1.941.75 2.15-.338 2.404-.75zm-28.035-1.686c.995-.755 1.393-1.63.883-1.944-.509-.315-1.73.317-2.714 1.404-2.04 2.253-.88 2.595 1.83.54zM176 305c0-.55-.45-1-1-1s-1 .45-1 1 .45 1 1 1 1-.45 1-1zm33.278-3.122c-.617-.617-.884-1.742-.593-2.5.652-1.698-1.838-1.825-3.485-.178-1.677 1.677-1.498 3.128.3 2.438.825-.316 1.5-.14 1.5.393s.765.969 1.7.969c1.256 0 1.407-.293.578-1.122zm3.263-1.945c1.076-1.741-.15-2.11-1.52-.457-.79.95-.866 1.524-.202 1.524.584 0 1.36-.48 1.722-1.067zM151 299.031c0-.532.563-.77 1.25-.528 1.574.555 5.36-2.227 4.373-3.214-.403-.402-1.045-.242-1.427.357-.383.598-1.807 1.035-3.165.97-1.61-.075-2.592.493-2.823 1.634-.195.963.128 1.75.719 1.75.59 0 1.073-.436 1.073-.969ZM173.75 297c.87 0 1.317-.266.992-.591-1.046-1.047-4.808.675-4.073 1.864.508.822.806.802 1.097-.072.22-.66 1.113-1.201 1.984-1.201ZM161 297c0-.55-.45-1-1-1s-1 .45-1 1 .45 1 1 1 1-.45 1-1zm9.312-3.083c.304-1.163.299-1.861-.011-1.551-.31.31-1.517.064-2.682-.547-2.007-1.051-2.034-1.01-.5.785.891 1.043 1.395 2.521 1.12 3.285-.276.77-.048 1.111.51.766.556-.343 1.258-1.575 1.563-2.738zm-7.31-.418c3.15-1 2.1-4.083-1.374-4.04-3.24.041-8.628 2.832-8.628 4.469 0 .86 6.869.566 10.003-.429zM157 292c0-.55.45-1 1-1s1 .45 1 1-.45 1-1 1-1-.45-1-1zm4 0c0-.55.45-1 1-1s1 .45 1 1-.45 1-1 1-1-.45-1-1zm53 .559c0-.243-.45-.72-1-1.059-.55-.34-1-.141-1 .441s.45 1.059 1 1.059 1-.198 1-.441zm-44-2c0-.243-.45-.72-1-1.059-.55-.34-1-.141-1 .441s.45 1.059 1 1.059 1-.198 1-.441zm3.772-17.12c-.336-.336-1.149.44-1.808 1.725-1.145 2.233-1.118 2.26.61.61.994-.95 1.533-2 1.198-2.336zm34.72-21.428c.351-.566-.05-.734-.94-.393-1.732.665-2.05 1.382-.611 1.382.518 0 1.216-.445 1.552-.989zM223 211.5c0-.825-.627-1.5-1.393-1.5s-1.652.675-1.969 1.5c-.391 1.02.054 1.5 1.393 1.5 1.084 0 1.969-.675 1.969-1.5Zm33.617-3.902c5.154-2.4 10.919-8.49 10.168-10.743-.222-.665-1.458.498-2.748 2.585-4.557 7.373-19.212 11.02-28.57 7.111-4.592-1.919-4.425-1.105.283 1.38 5.426 2.865 14.303 2.723 20.867-.333zm-42.637-16.122c-.696-.838-1.525-1.264-1.844-.946-.318.318.084.997.893 1.51 2.117 1.338 2.394 1.174.95-.564zm-3.443-12.016c-1.63-2.137-3.309-3.378-4.14-3.059-1.688.648-1.832-.566-.253-2.145.859-.859.606-1.003-1.016-.58-3.406.891-3.368 1.976.13 3.72 1.783.889 4.132 2.711 5.22 4.05 3.081 3.792 3.134 2.045.059-1.986zm-55.568-1.96c0-.55-.436-.325-.969.5-.533.825-.97 1.95-.97 2.5s.437.325.97-.5c.533-.825.97-1.95.97-2.5zm-12.349.122c-.956-3.808 6.737-14.157 12.758-17.16 3.622-1.808 3.692-1.807 2.983.04-.317.826.147 3.31 1.031 5.52 2.054 5.132 2.086 6.62.108 4.978-1.225-1.016-1.5-.958-1.5.319 0 1.944 1.644 3.066 2.49 1.697 1.071-1.733 2.266-1.126 2.92 1.484.669 2.663 2.59 3.462 2.59 1.077 0-4.383 9.412-11.002 14.092-9.91l2.408.561-2.5-1.847c-1.375-1.016-3.337-1.705-4.36-1.533-1.022.173-1.59-.12-1.26-.653.328-.532-.297-1.202-1.391-1.488-1.094-.286-1.989-.133-1.989.34 0 .471-1.448.675-3.219.45-1.77-.223-3.52.08-3.888.676-.368.596-1.197.757-1.841.36-.832-.515-.648-1.147.638-2.18 1.698-1.367 1.671-1.418-.44-.837-1.241.341-2.25.172-2.25-.377 0-3.542 20.473-3.466 24.774.092.701.58 1.502.826 1.781.547 1.01-1.01-4.243-3.565-9.951-4.842-5.058-1.132-5.524-1.421-3.498-2.17 1.286-.477 2.73-1.406 3.21-2.066.576-.792.681-.606.31.55-.733 2.279-.087 2.21 2.374-.25 1.1-1.1 2.819-2 3.82-2s3.66-1.575 5.909-3.5c4.31-3.689 6.271-4.37 6.271-2.178 0 2.011-5.142 8.474-8.509 10.693-3.562 2.348-3.003 2.515 1.76.525 2.177-.91 5.57-1.31 9-1.06l5.505.4-1.128-2.432C200.486 148.985 199 148.166 199 150c0 .55-.647 1-1.438 1-.821 0-1.373-.857-1.287-2 .103-1.373.867-2 2.438-2 2.415 0 3.144-1.548 1.057-2.243-.725-.242-.11-1.143 1.5-2.199 1.512-.99 2.753-2.74 2.782-3.923.03-1.254.863-.026 2.018 2.976 1.962 5.1 5.93 10.045 5.93 7.389 0-.899.687-.712 2.19.595l2.188 1.905-2.058-3c-2.524-3.68-3.794-7.5-2.494-7.5.528 0 1.219.675 1.536 1.5.695 1.81 3.625 2.01 3.67.25.018-.703.676-.398 1.504.696 1.142 1.51 1.74 1.679 2.668.75.928-.928.87-1.196-.263-1.196-.803 0-2.022-.9-2.709-2-1.463-2.343-.531-2.54 2.21-.468 2.719 2.057 4.323 1.843 7.74-1.032 4.178-3.515 5.953-3.13 2.04.444-3.615 3.302-4.058 4.307-1.472 3.337 1.532-.574 1.58-.446.378 1.032-2.427 2.983 1.399 2.041 5.176-1.275 2.561-2.249 3.652-2.682 4.534-1.8.64.64 1.162.815 1.162.39 0-3.103-3.087-3.64-5.423-.942-1.956 2.258-2.689 2.567-3.707 1.564-1.025-1.008-.97-1.25.28-1.25.853 0 2.578-1.34 3.833-2.977 1.255-1.638 2.683-2.73 3.174-2.426.49.303.769.012.618-.648-.151-.66.35-1.426 1.114-1.704.844-.306 1.118-.066.698.614-.426.69-.146.91.73.573.871-.335 1.628.25 1.958 1.511.786 3.007 2.316 2.513 2.143-.693-.216-3.998 1.16-6 4.125-6 5.051 0 4.67-1.904-.405-2.02-4.276-.097-4.858.124-4.448 1.691.318 1.218-.204 1.98-1.61 2.348-1.144.299-2.08.136-2.08-.363 0-.498.45-.906 1-.906s1-.675 1-1.5c0-1.707-1.568-2.009-2.51-.484-.346.56-1.067.746-1.603.414-.536-.331-1.517-.175-2.18.348-.664.522-2.764.936-4.667.919-3.322-.03-3.362-.072-1-1.086 1.353-.58 2.79-1.518 3.195-2.083.404-.566.741-.66.75-.21.019 1.016 6.22-3.238 7.315-5.018.44-.715 1.452-1.3 2.25-1.3.797 0 1.45-.401 1.45-.891 0-1.462-13.016-.155-19.866 1.995-3.501 1.098-6.557 1.806-6.791 1.572-.787-.787 7.258-3.513 15.224-5.158 4.346-.898 8.584-2.25 9.417-3.004.834-.754 1.843-1.443 2.243-1.53 10.095-2.206 3.038-4.632-10.542-3.623-5.304.394-7.43.286-6.04-.306 1.18-.502 5.456-1.202 9.5-1.555 8.572-.748 12.363-2.183 10.786-4.084-.796-.958-.57-1.134.943-.739 1.289.337 1.78 1.06 1.397 2.058-.409 1.066-.157 1.343.82.902.775-.35 2.196-.913 3.159-1.253 3.558-1.255-3.898-4.308-10.78-4.414-1.617-.025-1.7-.19-.46-.916.88-.515 3.539-.506 6.361.02 5.404 1.01 8.957-.082 4.129-1.269-2.093-.514-1.553-.6 1.787-.285 3.608.34 4.926.087 5.355-1.028.312-.814.95-1.244 1.42-.954.467.29.597 1.187.287 1.994-.62 1.619 2.142 2.1 3.105.542.352-.569 1.82-.569 3.803 0 5.743 1.647 5.38.977-1.257-2.326l-6.5-3.234 3.5-.516c2.442-.36 3.463-1.013 3.378-2.157-.09-1.215.736-1.641 3.183-1.641 4.427 0 5.892-.949 4.345-2.813-.655-.79-.871-1.755-.48-2.146.39-.391 1.486.317 2.433 1.573 1.578 2.092 5.141 2.285 5.141.279 0-1.402-2.284-2.921-3.622-2.408-.793.305-1.378-.107-1.378-.971 0-1.959 2.724-2.984 3.724-1.401.427.676 2.121 1.822 3.766 2.546 2.778 1.223 2.862 1.41 1.19 2.633-1.246.911-1.447 1.534-.653 2.025.631.39 1.637.219 2.236-.38.785-.785 1.59-.264 2.885 1.866 1.307 2.15 2.282 2.774 3.575 2.289 1.568-.588 1.613-.465.384 1.046-1.306 1.605-1.51 1.607-3.25.032-1.718-1.554-1.857-1.556-1.857-.025 0 .91.623 1.655 1.385 1.655s2.062 1.012 2.888 2.25c.827 1.238 4.254 5.068 7.615 8.513 5.66 5.801 8.148 9.171 4.588 6.217-.838-.696-1.792-.997-2.12-.67-.667.667 2.048 3.687 3.323 3.695.451.003 2.179 1.277 3.838 2.833 1.66 1.556 3.685 2.911 4.5 3.012.816.1 2.608.291 3.983.423s3.02.575 3.657.985c1.194.77 12.902-8.032 11.95-8.984-.283-.283-2.288.89-4.455 2.605-4.394 3.48-5.36 3.828-4.514 1.621.317-.825 1.09-1.503 1.719-1.506 1.408-.008 10.918-8.053 10.277-8.694-.255-.254-1.401.04-2.548.654-3.193 1.709-2.5.415 1.914-3.573 2.2-1.988 3.986-4.124 3.968-4.747-.017-.624-.581-.412-1.253.47-1.663 2.183-8.516 5.58-12.925 6.407-4.48.841-8.489-.212-6.89-1.81 1.941-1.942 1.181-2.878-1.805-2.222-1.782.391-3.183.187-3.625-.528-.499-.807-.093-.966 1.32-.517 1.123.356 2.347.153 2.721-.452.4-.648 1.871-.837 3.584-.461 3.615.794 3.911-1.052.314-1.954-1.842-.463-2.414-1.111-1.98-2.243.515-1.342.018-1.497-3.159-.986-2.073.333-3.192.245-2.486-.196.788-.492 1.005-1.543.563-2.722-.642-1.709-.533-1.767.99-.527.941.765 2 1.103 2.354.75.353-.354.114-.643-.533-.643-.9 0-.9-.442.001-1.884.768-1.23 2.217-1.838 4.169-1.75 1.646.074 3.187-.44 3.424-1.143.325-.96-.552-1.119-3.535-.642-2.482.397-4.223.22-4.65-.473-.39-.63-.012-1.108.874-1.108.857 0 1.559-.65 1.559-1.443 0-1.801 3.978-4.689 5.317-3.86.562.346.678.104.268-.559-.462-.748-2.53-1.007-5.732-.716-7.372.67-10.717-.81-5.22-2.309 2.274-.62 4.749-1.877 5.5-2.794 1.216-1.481 1.118-1.602-.882-1.086-1.237.318-2.501.171-2.809-.327-.308-.498.09-.906.882-.906.794 0 1.663-1.151 1.932-2.558.394-2.063.175-2.428-1.134-1.886-4.838 2.006-12.672 2.03-16.622.054-2.87-1.437-3.506-2.11-2.25-2.38.963-.207 1.75-.746 1.75-1.198 0-1.33-7.146 1.267-11.844 4.304-2.39 1.545-4.592 2.561-4.894 2.26-.301-.302.191-.833 1.095-1.18.904-.346 1.643-1.392 1.643-2.323s.532-2.225 1.183-2.876c2.493-2.493.084-2-2.81.575-3.89 3.46-7.517 8.73-6.624 9.624.38.38-.084.393-1.03.03-.945-.363-1.719-1.088-1.719-1.612s-.47-.662-1.044-.307c-.574.355-1.586.197-2.25-.35-.663-.548-4.261-1.982-7.996-3.186-5.648-1.822-6.59-2.43-5.607-3.615.65-.783.856-1.75.458-2.149-.399-.398-1.358.143-2.132 1.202-2.156 2.948-2.732 1.232-.988-2.943 1.73-4.138 1.928-5.488.809-5.482-.412.002-1.582 2.027-2.6 4.5-1.63 3.964-3.65 5.996-3.65 3.671 0-.454-1.502-.791-3.338-.75-2.57.058-3.241.45-2.916 1.703.331 1.273-.135 1.52-2.145 1.136-1.412-.27-3.363-.147-4.334.273-1.947.841-3.182 1.055-11.26 1.946-3.023.334-6.567 1.309-7.877 2.167-1.412.925-2.636 1.172-3.006.605-.683-1.045-4.561-3.255-5.713-3.255-.397 0 .096.903 1.095 2.006 2.55 2.819-.313 4.064-7.077 3.077-.315-.045.169-.823 1.073-1.728 1.305-1.304 1.377-1.812.35-2.446-.711-.44-.962-1.132-.556-1.538.405-.406 1.264-.211 1.907.432.893.893 1.594.785 2.965-.455 1.462-1.323 2.076-1.39 3.313-.364 1.392 1.155 1.952.724 1.63-1.255-.068-.424.978-.494 2.325-.156 3.239.813 5.688-.6 2.998-1.73-1.682-.705-1.609-.798.566-.716 7.434.28 10.88-1.647 8.033-4.494-2.131-2.131-1.204-3.791 1.227-2.199 1.64 1.075 2.668 1.192 3.75.43 1.244-.88 1.202-.96-.26-.49-.963.31-1.75.16-1.75-.332s.755-1.04 1.679-1.219c1.571-.302 1.571-.43 0-2.002-2.144-2.143-2.124-3.462.071-4.74 1.425-.83 1.464-1.026.212-1.05-4.126-.082-8.486-5.582-6.648-8.387 1.44-2.2 1.486-2.644.268-2.644-1.934 0-2.91-1.701-2.136-3.72.54-1.405.83-1.33 2.146.547 1.579 2.255 3.408 2.896 3.408 1.196 0-1.501-5.075-4.497-5.835-3.444-.366.507-1.79 1.037-3.165 1.18-1.375.142-3.255 1.164-4.178 2.271-1.764 2.117-3.457 1.067-2.462-1.527.895-2.33-1.812-.671-2.881 1.766-.543 1.238-1.87 2.231-2.979 2.231-1.438 0-2.089.772-2.316 2.75-.383 3.326-1.721 3.587-2.568.5-.572-2.086-.817-1.94-3.366 2-1.513 2.338-3.312 4.04-4 3.782-.735-.276-1.25.341-1.25 1.5 0 2.15-1.035 2.533-2.604.964-.673-.673-1.087.389-1.253 3.211C194.86 53.993 193.6 56 190.878 56c-1.033 0-1.878.502-1.878 1.117 0 .642.893.883 2.104.566 1.811-.474 2.036-.194 1.615 2.008-.505 2.639 2.799 7.725 4.382 6.747.439-.272 1.296.531 1.904 1.784 1.015 2.093.987 2.131-.353.47-1.341-1.664-1.45-1.53-1.358 1.688.054 1.922.395 3.312.757 3.088.362-.223 1.633.631 2.824 1.9l2.166 2.305-5.77 4.567c-8.116 6.422-15.474 13.741-19.07 18.968-2.735 3.975-3.435 4.428-6.386 4.13l-3.315-.334 2.813 1.324c3.08 1.45 2.39 2.75-2.21 4.163-2.042.628-2.32.449-1.886-1.212.42-1.604.09-1.87-1.854-1.498-2.6.497-3.247-1.497-1.162-3.582.887-.887.499-.874-1.493.05-1.48.688-2.696 2.012-2.7 2.942-.004.93-.506 1.999-1.115 2.375-.762.471-.873-.054-.356-1.683.676-2.129.583-2.227-.922-.978-1.454 1.206-1.974 1.107-3.959-.758-3.358-3.155-4.11-2.618-1.73 1.233 2.08 3.365 2.08 3.39.124 5.75l-1.966 2.37.452-3.75c.256-2.12.02-3.75-.542-3.75-.547 0-.994.955-.994 2.122 0 3.154-2.682.602-3.558-3.385-.574-2.614-.87-2.874-1.814-1.593-.62.842-1.609 1.37-2.197 1.17-3.942-1.33-6.298 17.134-2.905 22.763.733 1.215.61 1.223-.834.05-1.93-1.564-2.162-.492-.717 3.308 1.315 3.458.663 3.228-1.941-.685-1.893-2.844-2.081-2.938-1.512-.75 1.056 4.053 7.147 12.31 11 14.912 2.616 1.765 3.225 2.636 2.276 3.25-1.063.686-1.063.99-.001 1.676.713.46 1.4 2.46 1.527 4.443.303 4.739 1.08 5.34 4.232 3.275 1.44-.944 2.846-1.488 3.124-1.21.278.279-.773 1.172-2.337 1.985-3.599 1.872-6.367 4.942-9.72 10.778-2.161 3.763-3.07 4.528-4.946 4.17-1.335-.256-2.848.223-3.61 1.14-1.155 1.392-.875 1.581 2.342 1.581 2.326 0 3.863.545 4.23 1.5.915 2.385 1.638 1.738.981-.878zm20.886-7.595c-.801-3.647-.028-4.992 1.76-3.064.985 1.062.967 1.179-.09.58-1.093-.621-1.097-.39-.025 1.327.961 1.54 1.007 2.372.175 3.204-.832.832-1.305.3-1.82-2.047zM193.5 150c.34-.55.816-1 1.059-1s.441.45.441 1-.477 1-1.059 1-.78-.45-.441-1zm-9.833-2.667c-.367-.366-.667-1.131-.667-1.7 0-.626.466-.567 1.183.15.651.651.951 1.416.667 1.7-.284.284-.817.217-1.183-.15zm26.333-.392c0-.582.45-.78 1-.441.55.34 1 .816 1 1.059s-.45.441-1 .441-1-.477-1-1.059zm-2-3.441c0-.825.177-1.5.393-1.5.216 0 .652.675.969 1.5.316.825.14 1.5-.393 1.5s-.969-.675-.969-1.5Zm6-1.5c0-.55.477-1 1.059-1s.78.45.441 1c-.34.55-.816 1-1.059 1s-.441-.45-.441-1Zm8.086-2.396c-.94-1.134-.705-1.37 1.25-1.25 1.478.09 2.224.629 1.93 1.396-.628 1.635-1.744 1.583-3.18-.146zM197 139.24c0-.601-.787-1.3-1.75-1.55-1.578-.413-1.584-.47-.059-.574 1.804-.124 3.408 1.618 2.41 2.617-.33.33-.601.108-.601-.493Zm13.543-.17c-.317-.513-.118-1.214.44-1.56.56-.345 1.017.073 1.017.931 0 1.757-.6 2.015-1.457.628zm-4.084-2.137c-.363-.586-.445-1.28-.183-1.543.262-.262.743.218 1.07 1.067.675 1.762.099 2.072-.887.476zm20.541.07c0-1.212 2.805-2.532 3.629-1.708.298.299-.396 1.045-1.543 1.66-1.447.773-2.086.788-2.086.049zm-16-1.789c0-.668.498-1.214 1.107-1.214.641 0 .827-.736.44-1.75-.535-1.408-.418-1.505.6-.493 1.022 1.014.937 1.588-.44 2.964-1.068 1.069-1.707 1.253-1.707.493Zm22.964-1.05c.659-1.284 1.472-2.061 1.808-1.726.335.335-.204 1.386-1.198 2.336-1.728 1.65-1.755 1.623-.61-.61zm-17.37-1.01c-.32-.52.154-1.227 1.055-1.573 2.21-.848 2.727-.138.964 1.325-.855.71-1.67.81-2.018.247zm-30.844-2.816c.688-.278 1.813-.278 2.5 0 .688.277.125.504-1.25.504s-1.938-.227-1.25-.504zm20.39-5.485c-1.847-.532-3.174-1.152-2.947-1.38.738-.737 7.807.763 7.807 1.658 0 1.023-.42 1-4.86-.278zM213 124c1.976-1.277 5.29-1.277 4.5 0-.34.55-1.829.993-3.309.985-2.105-.012-2.364-.227-1.191-.985Zm-23-1c0-.55.45-1 1-1s1 .45 1 1-.45 1-1 1-1-.45-1-1zm9.813.317c.721-.289 1.584-.253 1.916.079.332.332-.258.568-1.312.525-1.165-.048-1.402-.285-.604-.604zM195.5 114c.34-.55 1.068-1 1.618-1s.722.45.382 1c-.34.55-1.068 1-1.618 1s-.722-.45-.382-1zm5.5 0c3.59-1.15 5.21-1.15 4.5 0-.34.55-2.054.955-3.809.9-3.047-.095-3.078-.135-.691-.9Zm-36.364-1.494c.316-.822.976-1.246 1.469-.941 1.412.872 1.044 2.435-.574 2.435-.892 0-1.243-.587-.895-1.494zm49.864-.573c3.85-1.038 8.125-1.857 9.5-1.82 1.375.037-.65.917-4.5 1.954-3.85 1.038-8.125 1.857-9.5 1.82-1.375-.037.65-.917 4.5-1.954zM313 97.94c0-.582.45-.78 1-.441.55.34 1 .816 1 1.059s-.45.441-1 .441-1-.477-1-1.059zm5.8-1.141c.933-.933 1.467-.933 2.4 0 .933.933.667 1.2-1.2 1.2s-2.133-.267-1.2-1.2zm-9.8-3.831c0-.533.675-.969 1.5-.969s1.5.177 1.5.393c0 .216-.675.652-1.5.969-.825.316-1.5.14-1.5-.393zm-10-3.902c0-.513-.9-1.218-2-1.567-2.878-.914-2.482-1.9 1.534-3.815 4.865-2.32 8.874-2.342 5.966-.033-1.91 1.516-1.842 1.566 1.5 1.093 5.275-.745 8.23.526 5.107 2.198-1.477.79-2.096.849-1.669.157.425-.688-.257-1.1-1.82-1.1-1.375 0-2.82.518-3.212 1.151-.497.804-1.098.623-1.992-.6-.705-.963-1.76-1.455-2.347-1.092-1.567.968-1.3 2.541.433 2.541.825 0 1.5.45 1.5 1s-.675 1-1.5 1-1.5-.42-1.5-.933zM314 89c0-.55 1.462-.993 3.25-.985 2.466.012 2.888.25 1.75.985-1.965 1.27-5 1.27-5 0zm-43-3.378c0-.207.675-.937 1.5-1.622 1.229-1.02 1.5-.951 1.5.378 0 .892-.675 1.622-1.5 1.622s-1.5-.17-1.5-.378Zm21.074-3.033c-.834-1.005-.858-1.605-.082-2.084.6-.37.816-1.535.481-2.59-.647-2.04.192-2.414 2.35-1.045 1.08.684 1.042 1.122-.202 2.366-1.794 1.794-1.126 2.888 1.227 2.008 1.437-.538 1.473-.399.28 1.069-1.673 2.056-2.529 2.114-4.054.276zM267.5 82c.34-.55.816-1 1.059-1s.441.45.441 1-.477 1-1.059 1-.78-.45-.441-1zm42.5 0c0-.55.45-1 1-1s1 .45 1 1-.45 1-1 1-1-.45-1-1zm8 .033c-2.491-.662-2.49-.666.5-1.26 3.259-.648 4.406-.22 2.933 1.092-.513.458-2.058.533-3.433.168ZM277 79c0-.55.45-1 1-1s1 .45 1 1-.45 1-1 1-1-.45-1-1zm21.733-.124c.679-.684 1.486-.99 1.793-.683.308.308-.247.867-1.233 1.243-1.425.542-1.54.428-.56-.56zM200.638 72.5c-.316-.825-.187-1.5.286-1.5.474 0 1.121.675 1.438 1.5.316.825.188 1.5-.286 1.5s-1.121-.675-1.438-1.5zm4.112-.463c-.963-.938-1.75-2.082-1.75-2.542 0-.46-.76-1.676-1.687-2.702-1.59-1.757-1.561-1.989.5-4.05 1.203-1.203 2.187-1.637 2.187-.965s.9 2.122 2 3.222 2 2.546 2 3.212c0 .667-1.332-.346-2.96-2.25-1.627-1.904-2.977-2.9-3-2.212-.022.688.304 1.25.724 1.25.773 0 4.585 8.023 4.034 8.49-.164.138-1.086-.515-2.048-1.453zM285 71.5c-.718-.865-.815-1.5-.23-1.5.56 0 1.275.675 1.592 1.5.316.825.42 1.5.23 1.5-.191 0-.907-.675-1.592-1.5zm31 .5c0-.55.477-1 1.059-1s.78.45.441 1c-.34.55-.816 1-1.059 1s-.441-.45-.441-1ZM198 62c0-.55.477-1 1.059-1s.78.45.441 1c-.34.55-.816 1-1.059 1s-.441-.45-.441-1Zm11-.031c0-.533.675-.969 1.5-.969s1.5.177 1.5.393c0 .216-.675.652-1.5.969-.825.316-1.5.14-1.5-.393zm-9.921-9.552c.048-1.165.285-1.402.604-.605.289.722.253 1.585-.079 1.917-.332.332-.568-.258-.525-1.312zM185.5 178c.34-.55.141-1-.441-1s-1.059.45-1.059 1 .198 1 .441 1 .72-.45 1.059-1zm-25.5-1.441c0-.243-.45-.72-1-1.059-.55-.34-1-.141-1 .441s.45 1.059 1 1.059 1-.198 1-.441zM273.5 174c.34-.55.141-1-.441-1s-1.059.45-1.059 1 .198 1 .441 1 .72-.45 1.059-1zm-67.285-2.497c4.125-.645 5.773-2.263 3.663-3.6-1.01-.64-1.042-.876-.12-.888 1.007-.012 1.01-.414.015-2.008-1.432-2.291-4.313-1.823-6.875 1.118-.88 1.011-1.949 1.51-2.374 1.107-.425-.403-.461.28-.08 1.518.879 2.862-.98 2.985-2.49.164-.614-1.147-1.369-1.833-1.678-1.524-.308.309-.009 1.228.668 2.042.675.814.942 1.943.592 2.51-.399.645.406.863 2.164.585 1.54-.244 4.472-.705 6.515-1.024zm64.189-3.24c.405-.406 1.268-.767 1.917-.804 2.707-.151 6.679-1.748 6.679-2.684 0-.573-.971-.725-2.25-.353-1.238.36-3.712.922-5.5 1.248-1.796.327-3.25 1.204-3.25 1.96 0 1.488 1.227 1.81 2.404.633zm-114.878-5.07c-.307-.308-1.114 0-1.793.683-.98.988-.865 1.102.56.56.986-.376 1.541-.935 1.233-1.243zM244.5 163c.34-.55.168-1-.382-1s-1.278.45-1.618 1c-.34.55-.168 1 .382 1s1.278-.45 1.618-1zm-18.47-8.015c8.498-4.336 15.002-5.258 24.959-3.54 4.955.855 9.348 1.608 9.76 1.673 2.43.384 5.251-.274 5.251-1.225 0-.609-.674-.848-1.499-.532-.824.317-2.512.185-3.75-.293-2.56-.987-1.638-1.517 4.365-2.51 3.306-.547 3.588-.851 3.275-3.534-.188-1.615.1-3.21.641-3.544.595-.367.416-1.175-.453-2.044-1.854-1.854-2.668-1.83-1.944.056.723 1.884-2.362 3.181-3.902 1.64-.844-.843-.827-1.132.067-1.132.66 0 1.2-.45 1.2-1 0-1.384-1.862-1.252-3.537.25-3.142 2.818-4.081 3.276-6.601 3.22-3.349-.076-9.503 4.437-6.362 4.665 1.1.08-1.432.473-5.626.875C231.01 149.05 215 157.516 215 162.22c0 .543 1.588-.407 3.528-2.11 1.94-1.704 5.316-4.01 7.501-5.125zm27.97-5.378c0-.216.675-.652 1.5-.969.825-.316 1.5-.14 1.5.393s-.675.969-1.5.969-1.5-.177-1.5-.393zM251.5 147c.995-1.1 2.355-2 3.02-2 .666 0 2.336-.885 3.711-1.967 1.376-1.082 2.767-1.702 3.092-1.376.648.647-5.827 5.343-7.367 5.343-.526 0-.956.45-.956 1s-.745 1-1.655 1c-1.488 0-1.473-.201.155-2zm7.5 0c.825-.533 1.95-.97 2.5-.97s.325.437-.5.97c-.825.533-1.95.97-2.5.97s-.325-.437.5-.97zm-9.5-2c.34-.55.816-1 1.059-1s.441.45.441 1-.477 1-1.059 1-.78-.45-.441-1zm3.23 17.396c-.333-.332-1.196-.368-1.917-.08-.798.32-.561.557.604.605 1.054.043 1.644-.193 1.312-.525zM204.5 161c.34-.55-.084-1-.941-1s-1.559.45-1.559 1 .423 1 .941 1 1.22-.45 1.559-1zm-36.5-2c0-.55-.423-1-.941-1s-1.22.45-1.559 1c-.34.55.084 1 .941 1s1.559-.45 1.559-1zm14.5-5c-.34-.55-1.154-.993-1.809-.985-.716.01-.592.403.309.985 1.921 1.242 2.267 1.242 1.5 0zm9.5-7.19c0-1.315-2.273-.492-2.771 1.003-.244.73.214.954 1.187.58.871-.334 1.584-1.046 1.584-1.583Zm80.5-2.81c.34-.55-.11-1-1-1s-1.34.45-1 1c.34.55.79 1 1 1 .21 0 .66-.45 1-1zm-19.153-5.078c-2.524-.918-3.696-.048-2.263 1.68.937 1.128 1.485 1.17 2.646.207 1.266-1.05 1.214-1.306-.383-1.887zm6.961-1.993c.278-1.062.129-1.699-.332-1.414-.46.285-1.12.06-1.466-.499-1.634-2.643-2.8.83-1.579 4.703.3.95 2.977-1.26 3.377-2.79zm-9.278-.985c.572-1.07.647-1.944.166-1.944s-1.4 1.154-2.043 2.564c-1.33 2.917.266 2.39 1.877-.62zM264 135c0-.55-.198-1-.441-1s-.72.45-1.059 1c-.34.55-.141 1 .441 1s1.059-.45 1.059-1zm6.623-2.36c1.324.474 1.14.083-.623-1.328-5.45-4.361-11.763-5.884-14.344-3.459-1.257 1.18-2.763 2.147-3.348 2.147s-1.629.681-2.32 1.514c-1.8 2.168 2.262 1.475 4.796-.819 3.248-2.939 11.216-1.842 11.216 1.544 0 1.587.287 1.768 1.373.866.756-.627 2.218-.836 3.25-.466zM320.5 130c.34-.55.141-1-.441-1s-1.059.45-1.059 1 .198 1 .441 1 .72-.45 1.059-1zm9.026-4.807c-.307-.308-1.114 0-1.793.683-.98.988-.865 1.102.56.56.986-.376 1.541-.935 1.233-1.243zM320 125c0-.55-.477-1-1.059-1s-.78.45-.441 1c.34.55.816 1 1.059 1s.441-.45.441-1zm-69.2-2.2c1.888-1.888 1.403-2.979-.8-1.8-1.1.589-2 1.505-2 2.035 0 1.325 1.354 1.21 2.8-.235zm65.7.2c-.34-.55-1.293-1-2.118-1s-1.222.45-.882 1c.34.55 1.293 1 2.118 1s1.222-.45.882-1zm8.5 0c0-1.253-1.061-1.253-3 0-1.213.784-1.07.972.75.985 1.238.008 2.25-.435 2.25-.985Zm-66.624-3.484c1.712-1.296 1.52-1.406-2.198-1.258-3.202.128-3.845.439-3.003 1.452 1.365 1.646 2.844 1.59 5.2-.194zM267.5 110c-.34-.55-1.041-1-1.559-1s-.941.45-.941 1 .702 1 1.559 1 1.28-.45.941-1zm38.492-.75c-.004-.412-1.13-1.27-2.5-1.906-2.886-1.339-3.282-.664-.742 1.264 1.976 1.5 3.254 1.753 3.242.642zM267.5 106c-2.752-1.183-3.731-1.183-3 0 .34.55 1.604.968 2.809.93 2.112-.068 2.12-.101.191-.93zm-108.418-1c1.315 0 1.135-2.748-.237-3.595-.689-.427-.884-.276-.483.372.37.597-.349 1.847-1.595 2.778-1.675 1.25-1.789 1.528-.435 1.068 1.007-.343 2.245-.623 2.75-.623zm102.752.124c1.087-.69 1.059-.951-.152-1.416-1.546-.593-2.682.025-2.682 1.459 0 1.058 1.124 1.04 2.834-.043zM300 105c0-.55-.477-1-1.059-1s-.78.45-.441 1c.34.55.816 1 1.059 1s.441-.45.441-1zm-37.507-4.989c.35-.566-.051-.734-.941-.393-1.732.665-2.05 1.382-.611 1.382.518 0 1.216-.445 1.552-.989zm65.644-4.799c-.722-.24-1.787.038-2.369.62-.742.742-.351.872 1.312.437 1.352-.354 1.806-.807 1.057-1.057zM195 68.035c0-.53-.9-1.446-2-2.035-2.402-1.285-2.573-.715-.429 1.429 1.812 1.811 2.429 1.965 2.429.606ZM190 63c0-2.027-3.75-6.584-4.664-5.669-.943.943 1.763 4.726 2.884 4.033.716-.442.903-.127.519.874-.33.862-.332 1.835-.003 2.164.993.994 1.264.693 1.264-1.402Zm46.5-2c.34-.55.141-1-.441-1S235 60.45 235 61s.198 1 .441 1 .72-.45 1.059-1zm72.5 0c0-.55-.675-1-1.5-1s-1.5.45-1.5 1 .675 1 1.5 1 1.5-.45 1.5-1zm-68.381-5.524c-.89-.89-1.619-1.227-1.619-.747 0 1.132 2.236 3.368 2.802 2.802.24-.24-.292-1.164-1.183-2.055zM192 52.56c0-.243-.45-.72-1-1.059-.55-.34-1-.141-1 .441S190.45 53 191 53s1-.198 1-.441z" style="fill:#f9f9f9;fill-opacity:1"/></svg>