<svg xmlns="http://www.w3.org/2000/svg" xml:space="preserve" viewBox="0 0 512 512">
  <path d="M122 424c0-1 11-13 20-19 8-6 8-7-1-1-12 8-31 29-19 21v-1zm-1-5-1-1-1 1v1l2-1zm-2-2c1-1 2-2 1-3-1 0-5 3-4 4 0 1 1 1 3-1zm-24-12 3-5 2 1c2 0 2 0 1-2v-2h2c1 1 1 1 1-1l1-2-1 1c0 2-1 0-2-3 0-2 0-2 1-1l1 1h3l1-2v-2c-2-1 0-6 4-11 3-3 4-5 3-5-2 0-1-5 0-5l1 2v1l1-2c0-3-4-3-5 0l-3 5a660 660 0 0 0-14 32zm10-16 1-1 1 1-1 1-1-1zm13 22c0-2 2-4 5-6l4-4 1-1 3-2 2-2 3-2 7-6v2c2 0 2 1 2 2-1 1-1 1 0 0s2-2 1-3c0-2 0-2 1-1 2 2 2 2 3 1l3-1-5 5c-3 0-5 4-3 4 1 1 2 0 1-1l3-2c3-1 8-6 6-6l-2-1h-2l-1-1c1-1 1-1-1-1-1 1-2 0-1-1l2-1v-2c-1-2 4-8 7-7l2-1-1-1-1-1 2-1 2-1c0-2-1-2-3-1l-3 3h-2c-2-2-2-2-1 0l-1 2-1 1-2 3v2c1 2 0 3-2 2v3h-4c1 1 0 2-2 3s-2 1-3-2c0-2-1-3-3-1 0 1-1 1-1-1-1-3 1-4 4-2 2 2 1 0-1-3l-2-2-3 4-3 2c0-3 5-7 9-7 2 1 3 0 2-1 0-1 4-3 6-1l1-1c-1-2 2-5 4-5 0 1 1 0 0 0l-1-1c-2 0-5-3-4-4l2 1h2l-1-2c-2-2-2-2-1-3v-3c-1 0-2-1-1-2 1-3-3-1-5 3-2 3-2 3-3 1-1-1-1-1-2 1l1 4 1 1h-2l-1-4c1-4-1-4-2-1l-2 4v-5h2l3-2 2-2c-1-1 0-2 1-1l1-1c-1-2 1-2 5 0h4c-1 2 0 5 1 5l1-2c-1-2 0-3 1-1h1l1-2 1-1h-2c-1 1-1 1-1-1v-3l-1-2c1-2 0-3-1-2-2 0-2 1 0 3l1 3c0 2-3-1-3-4l-3-2 1-2 3-2h3l-1-1v-1h4c-2-1 1-3 3-2 3 1 3-1 0-2l-1-2 2 1 1 1 1-2v-1l3-2c3-3 4-2 2 1l-2 2 3-2c2-3 2-5-1-4-1 0-2 0-2-2h-3l1 2 1 3-2-1c-1-2-1-1-3 1-1 2-1 2-1 0 1-2 1-2-1-1-1 0-2 1-1 2l-1 1-2-1c0-2 4-4 6-4 1 1 1 0 1-1s0-2 2-2c2-2 3-4 1-3-5 2-5 2-3 0 3-3 4-6 2-6l-1 1-1 3c-2 1-2 1-2-1l1-2 1-1h-1c-2 1-4 0-3-1h-2l-1 1 3 2c1 2 0 3-2 1h-1c0 2-4 6-5 4l-1-1-1 1 1 2-3 1v-2l1-3 2-2v-1c0-3 3-6 5-6 1 1 2 0 3-1l3-1v-2c-1-1-1-1 1-1h2l2-2c2-1 2-1-1-1h-3c1-1 0-1-2-1l-1 1-1 2c-4 3-5 2-2 0l3-2h-7c-1-1-4 0-5 2l-2 3c-1 1-1-1 2-4v-4l1-1 2 1h1l-1-2-1-1c-1-1 0-2 1-1l1-1 2-1c1 1 1 1 0 0-1-2 1-3 3-1l1-2v-3l1 1h1v-2c-2 0 0-2 3-2 2 0 2 0 1-1v-2c0-2 0-2-2-1v-1l2-1 3-1 4-2 4-3 2-2-3 6v1l2-2 2-2 2 2c0 2 1 2 3 0h2l-4 4c-3 3-4 5-1 3s4-1 1 2v3c2 0 2 1 1 2l-2-1h-1v1l1 2v1c1-1 5 0 5 1l-3 2-2 2 3-1c2 0 2 0 1 1-3 2-2 3 0 2 3-2 3-1 2 1-3 2 0 4 3 2l-1 2c-1 2 0 3 2 1h3v7c2 0 3 3 2 5v3c1 1 1 0 1-1 1-5 6-4 6 1 0 3 4 12 4 9l-1-1c-1-1-2-11-1-12h6l-1-1h-1v-1l1-1c-1-2 2-5 4-5l1-1h-1l-1-1h-1l-2-1c-1-6-1-6 1-6l2-1 3-2v-2l1-2c2 0 1-1-1-3l-3-1c1 1-1 2-2 1-2-1-2-1-3 1l-3 2-2 2-2 3v-3c1-2 1-2-1-2-2 1-2 1-1-1l1-2-2 1-2 1 5-4 2-1-2-1c-2 0-4-2-2-3v-2l1-1 1-1-1-2c-1 0 0-4 2-5h1c-1 2 3 7 5 7l-1-1c-1-1-1-2 1-3 1-1 1-1-1-1h-3l1-1 2-1c2-2 5-3 11-4 7-2 1-6-8-6-11 0-22 9-20 17h-1l-1-3v-3c-1 0-2-1-2-3s0-3 1-2c0 1 1 1 2-1 1-1 2-2 1-3l1-1c2 1 4-1 3-3h1l4-1c3-1 3-2 3-4l1-1 1 2 1 1 2-1-1-1-1-2v-1l3-1 1 1v1c2 0 1-5-1-6-2-2-2-2-1-4 1-1 0-2-2-5-3-3-3-3-1-3h2c0-1-3-3-4-2-2 0-2 0-1-2 0-2 0-2-4 1l-12 23v-2l1-5 1-4c0-3 1-5 2-5l2-1c1-1 1-1-1-1h-2l1-1 1-2 1-1v-2l1-1h1c-2-2 0-5 2-5l-1-3c-2-5-6-6-7-2h1c3-2 4 0 1 2l-2 1c-1 0-7 8-7 10 0 4-2 0-2-4v-6l4-1c5-1 5-2 0-1l-5-1 3-1c5 0 11-3 14-7l3-2-1 2c-3 4-1 11 3 14 2 2 2 2 0-1-3-5-4-7-2-7l3-2h2c2 2 2 2 5 0l4-3 3-3 4-2c2 0 2 0 0-2-3-2-4-5-2-3l1-1v-2c2 0 1-2-1-3l-2-1 2 1c2 0 2 0 2-2l-1-3-2-2-2-1 2-1 1-1-1-1-2-1a323 323 0 0 1 0-2c0-2-6 3-7 5 0 2-3 10-5 12-1 2-1 2-1 0 2-5 2-11 2-13l-1-3-3 3-5 3v-1l1-2-3 1c0 2-1 2-1 1l-1 1h-2l4-3c3-1 4-3 1-3l-2 1-5 1c-4 0-5 0-3-1 1-1 1-1-1-1s-3 0-3 2c1 2 0 3-2 4-4 1-5 1-2-1 4-1 4-4 0-4l-3-1v-1c1 1 3-1 6-4l5-4 5 1c6 1 7 0 1-1l-4-2c1-5-9 1-11 7 0 2-1 3-4 0h-2l-1 2c0 2 0 2 1 1 2 0 2 0 2 3l1 6v5l-1 11 1 8-3-1c-4-3-8-7-12-14-4-6-3-3 1 4 3 6 8 10 14 13l5 3a471 471 0 0 0 4 31l-1 7-4 5-4 5c0 1-4 6-10 11s-10 11-10 11l-1 3-3 5-3 7-2 3-1 5v6c1 1 1 2-1 4l-1 6c0 3-2 11-4 14v2h1l1-1c2 0 1 2-1 3-3 0-4 3-4 8l-2 1v2l-4 5-5 4 4-2c5-4 7-4 3 0-3 3-4 6-1 3 3-2 3 0 0 3l-1 1h2v1l-1 2v1c-1-1-2 0-3 1-1 2-1 2 1 1 1-1 1-1 1 2l-2 6v6l-1 2 2-2 6-6-2 3c-2 2-3 4-2 5l-1 1c-2 0-2 1-1 3h3l1-2v2c-2 2-3 2-4 1h-1a346 346 0 0 1-3 18c0 2 3-1 4-4zm5-10 1-2 1-4c-1 0-1-1 0 0v4l-1 2h-1zm4-6 1-3v3h-1zm3 0 1-1c1-1 1 0 0 0 0 2-1 2-1 1Zm-9-5 1-2 2 1h3v-4c2-2 3 3 1 5s-8 3-7 0zm11-1v-3l-2-2 2 1 3 2h1l-1 2v1l-2 1c-3 0-3 0-1-2zm-9-10 1-2v2l-1 1v-1Zm4-1 1-1v1l-1 1v-1zm-5-3c0-2 2-3 4-3 2-1 3 0 2 1-1 3-3 4-3 1h-2c0 2-1 2-1 1zm8-1 2-3v-1c-1 1-2 0-1-2 2-2 3-3 3-1h1c2-1 1 3-2 5l-2 3-1 1v-2zm6-1c0-2 2-4 2-2l-1 3-1-1zm6-5v-4h2v4c-2 2-2 2-2 0zm-17-4 2-3 3-1-2 2-3 3v-1Zm18-5 1-2v2l-1 2v-2zm-17-1 2-1-2 1c-1 1-1 1 0 0zm9-11c-1-1-1-1 0 0 2 1 2 2 1 2l-1-2zm7 0 1-2c3-2 4-1 1 1l-2 1zm-11-7 2-2c1-1 4 2 3 3l-2-1h-3zm9-1c0-2-2-3-2-1h-2c-1-2-1-2 1-5l1-3 1-1c3 1 2 0 0-2s-2-2 0-1c3 2 8 2 8 0l2-1 1-2v-1h3l-1 2-3 2-2 2 1 1 3 1c2 2-1 1-5-1h-1v2l-1 1h2l4 1-1 1c-1-1-1 0-2 1-1 4-3 5-4 3-1-1-1-1-1 1 1 3-1 3-2 0zm0-6c3-2 3-3 1-2s-4 3-4 5v1l3-4zm-5-1 1-2-1 2c-1 1-1 1 0 0zm-2-6 3-5 2-2c-3 7-5 10-5 7Zm10-2c2-2 3-2 3-1l-2 2c-2 1-2 1-1-1zm-4-3 1-1v2c-2 1-2 1-1-1zm15-1h1c2 1 3 2 1 2l-2-2zm-19-4 2-3c2-1 2 1 0 2l-2 1Zm8-2v-1l1 1v1l-2-1zm53-1c-1-1 0-2 2-3l3-3 2-1 2-1-2 2-1 3-1 1c-1-1-4 1-3 2h-2zm-59-3c2-2 2-3 1-3v-3h1v4l1 1c3-1 2 0-1 2l-3 1 1-2zm6 1 1-1v1l-1 1v-1Zm2-3c-1-1 0-2 1-1 1 0 2-2 0-3-1 0 0-2 2-2v3c1 0 1 1-1 2-1 2-2 2-2 1zm5-1 2-1h2l-2 1h-2zm51-3 1-1v1l-1 1v-1zm-7-1 3-2h2l-3 2h-2zm-53-5 1-1 1 2h-1l-1-1zm46-1v-1l1 1v1l-2-1zm18-1v-1c1-1 2 0 1 1h-1zm-23-6 1-1-1 2v-1zm-4-2 1-1v1l-1 1v-1zm-30-1 1-2-1 2c-1 1-1 1 0 0zm40-1c-1-1 0-2 2-2 1 0 2 0 1 1l-1 1h-2zm-7-4 1-1v1h-1zm8-3c1-4 2-5 3-3l-1 4c-2 2-2 2-2-1zm-24-8v-1l2 1h-2zm12-1h1v2l-1-2zm22-2 1-3v3h-1zm-33-1c0-2 3-4 5-3v1h-1l-2 2h-2zm10-5 2-2c1 0 0 4-2 4v-2zm34 0 2-1v1h-2zm-38-2 1-1c1-1 1 0 0 0 0 2-1 2-1 1Zm5-3 2-2c1 1-1 4-2 4v-2zm3 2 2-3h1l-1 2-2 1zm1-7 2-2c1-1 1-1 0 0 0 2-2 3-2 2zm-15-46 1-1 1 1-1 1-1-1zm15 0 1-1v1l-1 1v-1Zm-13-3c0-3 13-9 22-10 4 0 4 0 3 2l-2 2v-1c1-1-1-2-3-1l-9 3c-3 0-7 2-8 4l-3 1zm15-4 2-1h1l-1 1h-2zm-16-5 1-2-1 2c-1 1-1 1 0 0zm-1-10 1-1 1 1-2 1v-1zM72 412l3-2 3-4v-1c0 1 2 0 3-2 2-2 4-3 5-2l2-1 1-3 1 2c-1 4 0 4 2-1l5-11c3-5 5-11 2-6l-2 2 1-3 3-2 5-5c5-8 5-8 0-4l-8 5-4 4-1 1-3 1h3l-2 2-2 3-5 7-6 6-4 5-3 4v6l1-1Zm49 0h1l1-1c-1-2 1-3 3-3l3-2h-6c-2 1-3 2-2 3l-2 3v1l2-1zm-58-7 5-4 3-3 14-14c5-4 3-3-8 4-9 6-21 18-21 21s1 2 7-4zm70-1 1-1-2-1c-3 1-3 0 0-2l1-2-1 1-3 2c-2 1-3 4-1 3h5zm-46-1-1-1-2 1 1 1 2-1zm50-3-1-1-1 2 1 1 1-2zm-62-16-2 2-3 2 3-2 2-2zm65 1v-1l-2 1 1 1 1-1zm-58-5-1-1v1l1 1v-1Zm71-2v-1c-2 1-3 3-1 3l1-2zm-58-6 9-5 3-2c3-2 0-2-3 1l-4 1-2 1-11 7-3 2-1 2 2-1 10-6zm-16 5-1-1-2 1 1 1 2-1zm77-1-1-1v2c2 1 2 1 1-1zm-77-1c1 1 2 0 5-2l2-4-3 1-2 2 3-4 6-4 3-3 4-3v1c-2 2-1 3 1 2l1-3c-1-1-1-1 1-1h1l1-3 1-1a325 325 0 0 0-28 22h4zm0-1v-2l1 1c1 2 0 3-1 1zm84 2-2-1c0-1-1-1 0 0l2 1zm4-3 1-2h-1l-3-1c-2-1-4 2-3 3l1-1 1-1 1 2c-1 1-1 1 1 1l2-1Zm-17-1-1-2c-1 0-2 1-1 2l1 1 1-1zm-58-3-2-2c-2-1-3-1-1 2h3zm78-2v-3l-2-1v-1c-3 0-4-2-2-5 1-1 2-2 3-1 2 0 2 0 0-1-2-3-8 3-6 6l2 2 3 1v2l-1 1 2 1 1-1zm-76-2-1-2-1 2 1 1 1-1zm11-6-2 1-2 3 2-1 2-3zm69 2-2 1c-1 1-1 1 0 0l2-1zm-56-2 3-3-8 5 5-2zm37-15-1-1s-2 0-1 1l1 1 1-1zm15-2v-3l-2 2c-1 2 0 3 2 1zm-20-2-1-1-2 1 1 1 2-1zm32-1-1-1-2 1 1 1 2-1zm-8-2 2-2h-3l-2-1c-2 0-5 2-4 3l2-1c2-2 3-1 3 1s0 2 2 0zm20-20-1-1v2c1 2 2 1 1-1zm-29-2-1-1c-2 0-1 2 0 2l1-1zm-15-3v-2l-3 2h3zm26-4c1 0 1-1 0 0l-1 1c0 1 1 1 1-1zm32 2-1-2-1 1 1 1h1zm6-3-2-1-2 1 2 1 2-1zm-28-1 1-2-3 1c-2 2 0 3 2 1zm-10-1-1-1-1 1 1 1 1-1zm33-3v-3h-4v3h2l2 1v-1zm4-2c1-2-1-2-2-1v2l2-1zm-62-1h1c2 0 6-3 5-4l-2 1-3 1-3 1 1 2 1-1Zm23-2 1-1c-1-1-5 1-4 2h1l2-1Zm-13 0-1-1-1 1 1 1 1-1zm9-3v-2h-2c-2-1-2-1-1 1 1 1 2 2 1 3l1 1 1-3zm-7-1c3-1 2-4-1-4-4 0-9 3-9 5l10-1zm-6-1 1-1 1 1-1 1-1-1zm4 0 1-1 1 1-1 1-1-1zm53 1-1-1h-1l1 1h1zm-44-2-1-1h-1l1 1h1zm4-18-2 2c-1 2-1 2 1 1l1-3zm34-21c1-1 0-1 0 0-2 0-2 1-1 1l1-1zm15-40-1-2-2 2c-1 1 0 1 1 1l2-1Zm34-4c5-3 11-9 10-11 0-1-2 0-3 2-5 8-19 11-29 8-4-2-4-2 1 1s14 3 21 0zm-43-17h-2l1 1c2 1 2 1 1-1zm-3-12-5-3v-2h-1c-3 1-3 2 0 3l5 4c4 4 4 2 1-2zm-56-1h-1l-1 3 1-1 1-2zm-12 0c-1-4 6-15 12-18 4-1 4-1 3 1l1 5 1 5h-2c0 2 2 3 2 2 2-2 3-1 3 2 1 2 3 3 3 1 0-5 9-11 14-10h3l-3-2-4-1-2-1-1-1h-5l-4 1-2 1c-1-1-1-2 1-3h-1l-2-1c0-3 20-3 25 0l2 1c1-1-5-4-10-5s-6-1-4-2l3-2h1c-1 3 0 2 2 0l4-2 6-3c4-4 6-5 6-3s-5 9-9 11c-3 2-3 3 2 1l9-2 6 1-1-3c-2-2-3-3-3-1l-1 1-2-2c0-1 1-2 3-2s3-2 1-2l1-2 3-4c0-2 1 0 2 3 2 5 6 10 6 7 0-1 1-1 2 1l2 1-2-2-2-8 1 2c1 1 4 2 4 0h2c1 2 1 2 2 1v-1l-3-2c-1-2 0-3 2 0 3 2 5 1 8-1 4-4 6-4 2 0-3 3-4 4-1 3v1c-2 3 2 2 5-1 3-2 4-3 5-2l1 1c0-3-3-4-5-1-2 2-3 2-4 1v-1l4-3c1-2 3-3 3-2l1-1 1-2 1 1c-1 1-1 1 0 0l2 2c1 3 3 2 2-1 0-4 2-6 5-6 5 0 4-2-1-2-4 0-5 0-4 2l-2 2h-2l1-1 1-2c0-1-2-2-3 0h-1l-2 1-5 1c-3 0-3 0-1-1l3-2 1-1c0 1 6-3 7-5l3-1 1-1c0-1-13 0-20 2l-7 2c0-1 8-4 16-5l9-3 2-2c10-2 3-5-10-4h-6l9-2c9 0 13-2 11-4h1c1 0 2 1 1 2l1 1 3-2c4-1-4-4-11-4v-1h6c6 1 9 0 4-1h2c4 0 5 0 6-2h1v2c0 1 2 2 3 0h4c6 2 6 1-1-2l-7-3 4-1c2 0 3-1 3-2s1-2 4-2c4 0 5-1 4-3l-1-2 3 2c1 2 5 2 5 0 0-1-2-3-4-2l-1-1c0-2 3-3 4-2l3 3c3 1 3 1 2 2-2 1-2 2-1 3l2-1c1-1 2 0 3 2s2 3 4 2v1c-1 2-1 2-3 0h-2l1 2 3 2 8 9c6 6 8 9 4 6l-2-1c0 1 2 4 4 4l4 3 4 3h4l4 1c1 1 13-8 12-9l-5 3c-4 3-5 4-4 1l1-1c2 0 11-8 11-9l-3 1c-3 2-2 0 2-4l4-4h-1c-2 2-9 6-13 7-5 0-9-1-7-2 2-2 1-3-2-3h-4l2-1h6c4 0 4-2 0-2l-2-3c1-1 0-1-3-1h-2v-3h1l3 1-1-1v-2l4-2 4-1h-4l-4-1v-1l2-1c0-2 4-5 5-4l1-1-6-1c-8 1-11 0-5-2l5-3c1-1 1-1-1-1h-3l1-1c1 0 2-1 2-3 1-2 0-2-1-1-5 2-13 2-17 0l-2-3 2-1c0-1-7 1-12 4l-5 3 1-2 2-2 1-3c3-2 0-2-3 1-4 3-7 9-6 9h-1l-2-1h-1l-2-1-8-3c-6-2-7-2-6-4l1-2-3 1c-2 3-2 2-1-3 2-4 2-5 1-5l-2 5c-2 3-4 5-4 3l-3-1c-3 0-4 1-3 2 0 1 0 2-2 1l-5 1-11 1-8 3h-3l-6-3 2 2c2 3-1 4-8 3l2-2v-2l-1-2 2 1c1 1 2 1 3-1h3c2 1 2 1 2-1h2c4 0 6-1 3-2-1-1-1-1 1-1 7 0 11-2 8-4-2-2-1-4 1-3 2 2 3 2 4 1v-1h-2l2-1v-2c-2-2-2-4 0-5v-1c-4 0-9-6-7-8l1-3c-2 0-3-2-3-4 1-1 1-1 3 1 1 2 3 3 3 1 0-1-5-4-6-3l-3 1-4 2c-2 2-4 1-3-1 1-3-1-1-3 1 0 2-1 2-3 2-1 0-2 1-2 3 0 4-2 4-2 1-1-2-1-2-4 2l-4 4-1 1c0 2-1 3-3 1l-1 3c0 5-1 7-4 7l-2 1 2 1c2-1 2-1 2 2-1 2 3 7 4 6l2 2v1c-2-2-2-2-2 1l1 3 3 2 2 3-6 4-19 19c-3 4-3 5-6 4h-3l2 1c3 2 3 3-2 4-2 1-2 1-2-1 1-1 0-2-2-1-2 0-3-2-1-4h-1l-3 3-1 3v-2c0-2 0-2-1-1-2 1-2 1-4-1-4-3-4-2-2 1 2 4 2 4 0 6l-2 3 1-4-1-4-1 2c0 3-3 1-4-3 0-3 0-3-1-2s-2 2-3 1c-4-1-6 17-2 23h-1c-2-1-2 0-1 3 1 4 1 4-2 0l-1-1c1 4 7 12 11 15l2 3v2l1 4c1 5 1 6 5 4l3-2c0 1-1 2-3 2-3 2-6 5-9 11-3 4-3 5-5 4l-4 1c-1 2-1 2 2 2l5 1c1 3 1 2 1 0zm21-8c-1-4-1-5 1-3v5c-1 1-1 0-1-2zm30-20 1-1v1l-1 1v-1zm-10-3-1-1h1l1 1h-1zm26 0h1l1 1h-1l-1-1zm-2-3v-2l1 2v1l-1-1Zm6-2 1-1v1l-1 1v-1Zm8-2c-1-2-1-2 1-2s3 1 2 2h-3zm-25-1-2-1v-1c2 0 4 2 3 3l-1-1Zm14 0v-1h1c0 2-1 2-1 1zm-5-2v-2l1 1c1 2 0 3-1 1zm21 0c0-1 3-3 4-2l-2 2h-2zm-16-2 1-1 1-2c-1-1-1-1 0 0v3h-2Zm23-1 2-2-1 3c-2 1-2 1-1-1zm-17-1 1-1c2-1 2-1 1 1h-2zm-31-3h2c1 1 0 1-1 1l-1-1zm20-5-3-2 8 2h-5zm7-1h5l-4 1c-2 0-2 0-1-1Zm-23-1 1-1 1 1-1 1-1-1zm10 0h2l-2 1v-1zm-4-9 1-1v1l-1 1v-1zm5 0h5l-4 1c-3 0-3 0-1-1Zm-36-1 1-1c2 0 1 2 0 2l-1-1zm49-1 10-2-4 2-10 2 5-2zm99-14 1-1 1 2h-1l-1-1zm6-1h2c1 1 1 1-1 1s-2 0-1-1zm-10-4 2-1h1l-1 1h-2zm-10-4-2-2c-3 0-2-1 2-3 4-3 8-3 5 0-1 1-1 1 2 1 5-1 8 0 5 2h-2c1-1 0-1-1-1l-4 1h-2l-2-2c-1 1-1 3 1 3l1 1-1 1-2-1zm15 0 3-1c3 0 3 0 2 1h-5zm-43-3 2-2h1l-1 2h-2Zm21-3v-5c0-2 1-2 3-1v2c-2 2-2 3 1 2v1c-2 2-2 2-4 1zm-24-1 1-1v1l-1 1-1-1zm42 0 1-1 1 1-1 1-1-1zm8 0c-2-1-2-1 1-1 3-1 4 0 2 1h-3Zm-41-3 1-1 1 1-1 1-1-1zm22 0 2-1-2 1c-1 1-1 1 0 0zm-98-6v-2l1 2v1l-1-1zm4-1-2-3-2-2c-1-2-1-2 1-4l2-1 2 3 2 3-3-2-3-2 1 1 4 8-2-1zm80 0v-2l1 2 1 1-2-1zm31 0 1-1 1 1-2 1v-1ZM198 62l1-1v1l-1 1v-1Zm11 0 2-1h1l-1 1h-2zm-10-10h1v2l-1-2zm-13 126-1-1-1 1v1l2-1zm-26-1-1-2-1 1 1 1h1zm114-3-1-1-1 1v1l1-1zm-68-2c4-1 6-3 4-4v-3c-2-2-5-2-7 1l-2 1-1 2c1 3-1 3-2 0l-2-2 1 2 1 3a3603 3603 0 0 1 9 0zm64-4 2-1 7-2-2-1-6 2c-2 0-3 1-3 2h2zm-114-5-2 1c-1 1-1 1 0 0l2-1zm89 0-1-1-2 1 1 1 2-1zm-19-8c9-4 15-5 25-4a2584 2584 0 0 0 15 1l-1-1h-4c-3-1-2-1 4-2 3-1 4-1 3-4l1-4v-2h-2c0 2-3 4-4 2v-1l1-1h-4c-3 3-4 4-6 3-3 0-10 5-6 5l-6 1c-11 1-27 10-27 14l4-2c1-2 5-4 7-5zm28-5 2-1h1l-1 1h-2zm-2-3 3-2 3-2 3-1-7 5-1 1-2 1v-2zm7 0 3-1-1 1-2 1v-1zm-9-2 1-1v1l-1 1v-1zm3 17h-2v1l2-1zm-48-1-1-1-2 1 1 1 2-1zm-37-2-1-1-2 1 1 1 2-1zm15-5-2-1v1h2zm9-7c0-2-2-1-3 1h1l2-1Zm81-3-1-1s-2 0-1 1l1 1 1-1zm-20-5c-2-1-3 0-2 2h3c1-1 1-1-1-2zm7-2v-1l-1-1c-2-3-3 1-2 5l3-3zm-9-1v-2l-2 3c-1 2 0 2 2-1zm13-1v-1l-1 1v1l1-1zm7-2-1-2c-5-4-12-6-14-3l-4 2-2 2c-2 2 2 1 5-1 3-3 11-2 11 1 0 2 0 2 1 1h4zm50-3-1-1-1 1v1l1-1zm9-5-2 1c-1 1-1 1 0 0l2-1zm-10 0-1-1-1 1 2 1v-1zm-69-2c2-2 1-3-1-2l-2 2h3zm66 0-3-1v1l2 1v-1zm8 0h-3c-1 1-1 1 1 1l2-1Zm-67-3c2-2 2-2-2-2-3 0-4 1-3 2h5zm10-10-2-1-1 1 2 1 1-1zm38-1-3-2c-2-1-3 0 0 2h3zm-38-3h-3l2 1c2 0 2 0 1-1zm-109-1v-4l-1 1-1 3-1 1 3-1zm103 0v-1c-2-1-3 0-3 1h3zm38 0-1-1-1 1 2 1v-1zm-38-5c1-1 0-1 0 0-2 0-2 1-1 1l1-1zm66-5-2 1h1l1-1zM195 68l-2-2c-2-1-3-1 0 1 1 2 2 2 2 1Zm-5-5c0-2-4-7-5-6s2 5 3 4l1 1v2c1 1 1 1 1-1Zm47-2-1-1-1 1v1l2-1zm72 0-1-1-2 1 2 1 1-1zm-68-6h-2l3 3-1-3zm-49-2-1-1h-1l1 1h1z"/>
</svg>
