<?xml version="1.0" encoding="UTF-8" standalone="no"?>
<svg
   viewBox="0 0 576 576"
   version="1.1"
   id="svg4"
   sodipodi:docname="playstation.svg"
   inkscape:version="1.2.1 (9c6d41e410, 2022-07-14)"
   width="576"
   height="576"
   xmlns:inkscape="http://www.inkscape.org/namespaces/inkscape"
   xmlns:sodipodi="http://sodipodi.sourceforge.net/DTD/sodipodi-0.dtd"
   xmlns="http://www.w3.org/2000/svg"
   xmlns:svg="http://www.w3.org/2000/svg">
  <defs
     id="defs8" />
  <sodipodi:namedview
     id="namedview6"
     pagecolor="#ffffff"
     bordercolor="#000000"
     borderopacity="0.25"
     inkscape:showpageshadow="2"
     inkscape:pageopacity="0.0"
     inkscape:pagecheckerboard="0"
     inkscape:deskcolor="#d1d1d1"
     showgrid="false"
     inkscape:zoom="0.4609375"
     inkscape:cx="159.45763"
     inkscape:cy="256"
     inkscape:window-width="1440"
     inkscape:window-height="877"
     inkscape:window-x="-8"
     inkscape:window-y="1072"
     inkscape:window-maximized="1"
     inkscape:current-layer="svg4" />
  <!--! Font Awesome Pro 6.2.1 by @fontawesome - https://fontawesome.com License - https://fontawesome.com/license (Commercial License) Copyright 2022 Fonticons, Inc. -->
  <path
     d="m 570.91643,406.05 c -11.3,14.2 -38.8,24.3 -38.8,24.3 l -205.1,73.6 v -54.3 l 150.9,-53.8 c 17.1,-6.1 19.8,-14.8 5.8,-19.4 -13.9,-4.6 -39.1,-3.3 -56.2,2.9 l -100.5,35.5 v -56.4 c 23.2,-7.8 47.1,-13.6 75.7,-16.8 40.9,-4.5 90.9,0.6 130.2,15.5 44.2,14 49.2,34.7 38,48.9 z m -224.4,-92.5 v -139 c 0,-16.3 -3,-31.3 -18.3,-35.6 -11.7,-3.8 -19,7.1 -19,23.4 v 347.9 l -93.8,-29.8 V 65.75 c 39.9,7.4 98,24.9 129.2,35.4 79.5,27.3 106.4,61.3 106.4,137.8 0,74.5 -46,102.8 -104.5,74.6 z M 43.216433,443.95 c -45.4000004,-12.8 -53.0000004,-39.5 -32.3,-54.8 19.1,-14.2 51.7,-24.9 51.7,-24.9 l 134.499997,-47.8 v 54.5 l -96.8,34.6 c -17.099997,6.1 -19.699997,14.8 -5.799997,19.4 13.899997,4.6 39.099997,3.3 56.199997,-2.9 l 46.4,-16.9 v 48.8 c -51.6,9.3 -101.399997,7.3 -153.899997,-10 z"
     id="path2"
     style="fill:#f9f9f9;fill-opacity:1" />
</svg>
