<svg xmlns="http://www.w3.org/2000/svg" viewBox="0 0 576 576">
<!--! Font Awesome Pro 6.2.1 by @fontawesome - https://fontawesome.com License - https://fontawesome.com/license (Commercial License) Copyright 2022 Fonticons, Inc.-->
  <path d="M571 406c-11 14-39 24-39 24l-205 74v-54l151-54c17-6 20-15 6-20-14-4-39-3-56 3l-101 36v-57c23-7 47-13 76-16 41-5 91 0 130 15 44 14 49 35 38 49zm-224-92V175c0-17-3-32-19-36-11-4-19 7-19 23v348l-94-30V66c40 7 98 25 130 35 79 27 106 61 106 138 0 74-46 103-104 75zM43 444c-45-13-53-40-32-55 19-14 52-25 52-25l134-48v55l-97 35c-17 6-19 14-5 19 13 5 39 3 56-3l46-17v49c-51 9-101 7-154-10z"/>
</svg>
