<?xml version="1.0" encoding="UTF-8" standalone="no"?>
<svg
   viewBox="0 0 512 512"
   version="1.1"
   id="svg4"
   sodipodi:docname="pointer.svg"
   width="512"
   height="512"
   inkscape:version="1.2.2 (732a01da63, 2022-12-09)"
   xmlns:inkscape="http://www.inkscape.org/namespaces/inkscape"
   xmlns:sodipodi="http://sodipodi.sourceforge.net/DTD/sodipodi-0.dtd"
   xmlns="http://www.w3.org/2000/svg"
   xmlns:svg="http://www.w3.org/2000/svg">
  <defs
     id="defs8" />
  <sodipodi:namedview
     id="namedview6"
     pagecolor="#ffffff"
     bordercolor="#000000"
     borderopacity="0.25"
     inkscape:showpageshadow="2"
     inkscape:pageopacity="0.0"
     inkscape:pagecheckerboard="0"
     inkscape:deskcolor="#d1d1d1"
     showgrid="false"
     showguides="true"
     inkscape:zoom="0.30279914"
     inkscape:cx="-1966.6502"
     inkscape:cy="1003.9658"
     inkscape:window-width="2560"
     inkscape:window-height="1057"
     inkscape:window-x="-8"
     inkscape:window-y="-8"
     inkscape:window-maximized="1"
     inkscape:current-layer="svg4" />
  <!--! Font Awesome Pro 6.4.0 by @fontawesome - https://fontawesome.com License - https://fontawesome.com/license (Commercial License) Copyright 2023 Fonticons, Inc. -->
  <path
     d="M 96,55.207682 V 426.00768 c 0,12.2 9.9,22 22,22 6.3,0 12.4,-2.7 16.6,-7.5 l 82.6,-94.5 58.1,116.3 c 7.9,15.8 27.1,22.2 42.9,14.3 15.8,-7.9 22.2,-27.1 14.3,-42.9 l -56.7,-113.7 h 118.1 c 12.2,0 22.1,-9.9 22.1,-22.1 0,-6.3 -2.7,-12.3 -7.4,-16.5 L 134.6,37.907682 c -4.3,-3.8 -9.7,-5.9 -15.4,-5.9 -12.8,0 -23.2,10.4 -23.2,23.2 z"
     id="path2"
     style="display:inline;fill:#f9f9f9;fill-opacity:1" />
</svg>
