<svg xmlns="http://www.w3.org/2000/svg" width="512" height="512"><!--! Font Awesome Pro 6.4.0 by @fontawesome - https://fontawesome.com License - https://fontawesome.com/license (Commercial License) Copyright 2023 Fonticons, Inc.--><path d="M96 55.208v370.8c0 12.2 9.9 22 22 22 6.3 0 12.4-2.7 16.6-7.5l82.6-94.5 58.1 116.3c7.9 15.8 27.1 22.2 42.9 14.3 15.8-7.9 22.2-27.1 14.3-42.9l-56.7-113.7h118.1c12.2 0 22.1-9.9 22.1-22.1 0-6.3-2.7-12.3-7.4-16.5l-274-243.5c-4.3-3.8-9.7-5.9-15.4-5.9-12.8 0-23.2 10.4-23.2 23.2z" style="display:inline;fill:#f9f9f9;fill-opacity:1"/></svg>