<svg xmlns="http://www.w3.org/2000/svg" viewBox="0 0 512 512">
<!--!Font Awesome Free 6.5.2 by @fontawesome - https://fontawesome.com License - https://fontawesome.com/license/free Copyright 2024 Fonticons, Inc.-->
  <path d="M404 34c12-5 26-2 35 7l64 64a32 32 0 0 1 0 46l-64 64c-9 9-23 11-35 6s-20-16-20-29v-32h-32c-10 0-20 5-26 13l-42 56-40-53 31-42c18-24 47-38 77-38h32V64c0-13 8-25 20-30zM164 283l40 53-31 42a96 96 0 0 1-77 38H32a32 32 0 1 1 0-64h64c10 0 20-5 26-13l42-56zm275 188c-10 9-23 12-35 7s-20-17-20-30v-32h-32c-30 0-59-14-77-38L122 173c-6-8-16-13-26-13H32a32 32 0 1 1 0-64h64c30 0 59 14 77 38l153 205c6 8 16 13 26 13h32v-32a32 32 0 0 1 55-23l64 64a32 32 0 0 1 0 46l-64 64z"/>
</svg>
