<svg xmlns="http://www.w3.org/2000/svg" viewBox="0 0 512 512">
<!--! Font Awesome Pro 6.4.2 by @fontawesome - https://fontawesome.com License - https://fontawesome.com/license (Commercial License) Copyright 2023 Fonticons, Inc.-->
  <path d="M428 177a61 61 0 1 1-123 0 61 61 0 0 1 123 0zm52 1c0 63-51 113-114 113l-109 80a85 85 0 0 1-167 10l-58-23V251l97 39c15-9 32-13 52-12l71-101a114 114 0 0 1 228 1ZM235 363a62 62 0 0 0-76-61l26 10a49 49 0 1 1-37 92l-31-12a62 62 0 0 0 118-29zm208-185a76 76 0 1 0-153 0 76 76 0 0 0 153 0z"/>
</svg>
