<?xml version="1.0" encoding="UTF-8" standalone="no"?>
<svg
   viewBox="0 0 512 512"
   version="1.1"
   id="svg1"
   sodipodi:docname="steam-symbol.svg"
   width="512"
   height="512"
   xmlns:inkscape="http://www.inkscape.org/namespaces/inkscape"
   xmlns:sodipodi="http://sodipodi.sourceforge.net/DTD/sodipodi-0.dtd"
   xmlns="http://www.w3.org/2000/svg"
   xmlns:svg="http://www.w3.org/2000/svg">
  <defs
     id="defs1" />
  <sodipodi:namedview
     id="namedview1"
     pagecolor="#ffffff"
     bordercolor="#000000"
     borderopacity="0.25"
     inkscape:showpageshadow="2"
     inkscape:pageopacity="0.0"
     inkscape:pagecheckerboard="0"
     inkscape:deskcolor="#d1d1d1" />
  <!--! Font Awesome Pro 6.4.2 by @fontawesome - https://fontawesome.com License - https://fontawesome.com/license (Commercial License) Copyright 2023 Fonticons, Inc. -->
  <path
     d="m 427.5,177.45 c 0,33.8 -27.5,61 -61,61 -33.8,0 -61,-27.3 -61,-61 0,-33.7 27.3,-61 61,-61 33.5,0 61,27.2 61,61 z m 52.5,0.2 c 0,63 -51,113.8 -113.7,113.8 L 257,371.25 c -4,43 -40.5,76.8 -84.5,76.8 -40.5,0 -74.699999,-28.8 -82.999999,-67 L 31.999999,357.95 V 250.65 L 129.2,289.95 c 15.1,-9.2 32.2,-13.3 52,-11.5 l 71,-101.7 C 252.7,114.45 303.7,63.950001 366.2,63.950001 429,63.950001 480,114.95 480,177.65 Z m -245,185.3 c 0,-34.7 -27.8,-62.5 -62.5,-62.5 -4.5,0 -9,0.5 -13.5,1.5 l 26,10.5 c 25.5,10.2 38,39 27.7,64.5 -10.2,25.5 -39.2,38 -64.7,27.5 -10.2,-4 -20.5,-8.3 -30.7,-12.2 10.5,19.7 31.2,33.2 55.2,33.2 34.7,0 62.5,-27.8 62.5,-62.5 z m 207.5,-185.3 c 0,-42 -34.3,-76.2 -76.2,-76.2 -42.3,0 -76.5,34.2 -76.5,76.2 0,42.2 34.3,76.2 76.5,76.2 41.9,0.1 76.2,-33.9 76.2,-76.2 z"
     id="path1"
     style="fill:#f9f9f9;fill-opacity:1" />
</svg>
