<svg xmlns="http://www.w3.org/2000/svg" viewBox="0 0 512 512">
<!--! Font Awesome Pro 6.4.0 by @fontawesome - https://fontawesome.com License - https://fontawesome.com/license (Commercial License) Copyright 2023 Fonticons, Inc.-->
  <path d="M143 143c62-62 163-63 225-1l-41 41a24 24 0 0 0 17 41h128c13 0 24-11 24-24V72a24 24 0 0 0-41-17l-42 42a224 224 0 0 0-368 84 32 32 0 0 0 60 22c8-22 20-43 38-60zM16 312v128a24 24 0 0 0 41 17l42-42a224 224 0 0 0 368-84 32 32 0 0 0-60-22 160 160 0 0 1-263 61l41-41a24 24 0 0 0-17-41H40c-13 0-24 11-24 24z"/>
</svg>
