<svg xmlns="http://www.w3.org/2000/svg" viewBox="0 0 512 512">
<!--! Font Awesome Pro 6.4.0 by @fontawesome - https://fontawesome.com License - https://fontawesome.com/license (Commercial License) Copyright 2023 Fonticons, Inc.-->
  <path d="M176 88v40h160V88c0-4-4-8-8-8H184c-4 0-8 4-8 8zm-48 40V88c0-31 25-56 56-56h144c31 0 56 25 56 56v40h28c13 0 25 5 34 14l52 52c9 9 14 21 14 34v76H384v-16a32 32 0 1 0-64 0v16H192v-16a32 32 0 1 0-64 0v16H0v-76c0-13 5-25 14-34l52-52c9-9 21-14 34-14h28zM0 416v-80h128v16a32 32 0 1 0 64 0v-16h128v16a32 32 0 1 0 64 0v-16h128v80c0 35-29 64-64 64H64c-35 0-64-29-64-64z"/>
</svg>
