<?xml version="1.0" encoding="UTF-8" standalone="no"?>
<svg
   viewBox="0 0 512 512"
   version="1.1"
   id="svg4"
   sodipodi:docname="xbox.svg"
   inkscape:version="1.2.1 (9c6d41e410, 2022-07-14)"
   xmlns:inkscape="http://www.inkscape.org/namespaces/inkscape"
   xmlns:sodipodi="http://sodipodi.sourceforge.net/DTD/sodipodi-0.dtd"
   xmlns="http://www.w3.org/2000/svg"
   xmlns:svg="http://www.w3.org/2000/svg">
  <defs
     id="defs8" />
  <sodipodi:namedview
     id="namedview6"
     pagecolor="#ffffff"
     bordercolor="#000000"
     borderopacity="0.25"
     inkscape:showpageshadow="2"
     inkscape:pageopacity="0.0"
     inkscape:pagecheckerboard="0"
     inkscape:deskcolor="#d1d1d1"
     showgrid="false"
     inkscape:zoom="0.4609375"
     inkscape:cx="-90.033898"
     inkscape:cy="256"
     inkscape:window-width="1440"
     inkscape:window-height="877"
     inkscape:window-x="-8"
     inkscape:window-y="1072"
     inkscape:window-maximized="1"
     inkscape:current-layer="svg4" />
  <!--! Font Awesome Pro 6.2.1 by @fontawesome - https://fontawesome.com License - https://fontawesome.com/license (Commercial License) Copyright 2022 Fonticons, Inc. -->
  <path
     d="m 369.88329,318.20702 c 44.3,54.3 64.7,98.8 54.4,118.7 -7.9,15.1 -56.7,44.6 -92.6,55.9 -29.6,9.3 -68.4,13.3 -100.4,10.2 -38.2,-3.7 -76.9,-17.4 -110.1,-39 -27.899999,-18.2 -34.199999,-25.7 -34.199999,-40.6 0,-29.9 32.899999,-82.3 89.199999,-142.1 32,-33.9 76.5,-73.7 81.4,-72.6 9.4,2.1 84.3,75.1 112.3,109.5 z m -181.3,-174.4 c -29.7,-26.9 -58.1,-53.900002 -86.4,-63.400002 -15.199999,-5.1 -16.299999,-4.8 -28.699999,8.1 -29.2,30.400002 -53.5,79.700002 -60.3,122.400002 -5.3999997,34.2 -6.0999997,43.8 -4.1999997,60.5 5.5999997,50.5 17.2999997,85.4 40.4999997,120.9 9.5,14.6 12.1,17.3 9.3,9.9 -4.2,-11 -0.3,-37.5 9.5,-64 14.3,-39 53.899999,-112.9 120.299999,-194.4 z m 311.6,63.5 c -16.9,-80 -67.5,-130.300002 -74.6,-130.300002 -7.3,0 -24.2,6.5 -36,13.9 -23.3,14.500002 -41,31.400002 -64.3,52.800002 42.4,53.3 102.2,139.4 122.9,202.3 6.8,20.7 9.7,41.1 7.4,52.3 -1.7,8.5 -1.7,8.5 1.4,4.6 6.1,-7.7 19.9,-31.3 25.4,-43.5 7.4,-16.2 15,-40.2 18.6,-58.7 4.3,-22.5 3.9,-70.8 -0.8,-93.4 z m -358.9,-164.300002 c 47.7,-2.5 109.7,34.5 114.3,35.4 0.7,0.1 10.4,-4.2 21.6,-9.7 63.9,-31.1 94,-25.8 107.4,-25.2 -63.9,-39.2999996 -152.7,-49.9999996 -233.9,-11.7 -23.4,11.1 -24,11.9 -9.4,11.2 z"
     id="path2"
     style="fill:#f9f9f9;fill-opacity:1" />
</svg>
