<svg xmlns="http://www.w3.org/2000/svg" width="576" height="576"><!--! Font Awesome Pro 6.2.1 by @fontawesome - https://fontawesome.com License - https://fontawesome.com/license (Commercial License) Copyright 2022 Fonticons, Inc.--><path d="M549.655 156.083c-6.281-23.65-24.787-42.276-48.284-48.597C458.781 96 288 96 288 96s-170.78 0-213.371 11.486c-23.497 6.322-42.003 24.947-48.284 48.597-11.412 42.867-11.412 132.305-11.412 132.305s0 89.438 11.412 132.305c6.281 23.65 24.787 41.5 48.284 47.821C117.22 480 288 480 288 480s170.78 0 213.371-11.486c23.497-6.321 42.003-24.171 48.284-47.821 11.412-42.867 11.412-132.305 11.412-132.305s0-89.438-11.412-132.305zm-317.51 213.508V207.185l142.739 81.205z" style="fill:#f9f9f9;fill-opacity:1"/></svg>